<?xml version="1.0" standalone="no"?>
<!DOCTYPE svg PUBLIC "-//W3C//DTD SVG 20010904//EN"
 "http://www.w3.org/TR/2001/REC-SVG-20010904/DTD/svg10.dtd">
<svg version="1.0" xmlns="http://www.w3.org/2000/svg"
 width="1228.000000pt" height="254.000000pt" viewBox="0 0 1228.000000 254.000000"
 preserveAspectRatio="xMidYMid meet">
<metadata>
Created by potrace 1.15, written by Peter Selinger 2001-2017
</metadata>
<g transform="translate(0.000000,254.000000) scale(0.100000,-0.100000)"
fill="#000000" stroke="none">
<path d="M393 2533 l397 -3 0 -48 c0 -213 178 -415 399 -452 139 -23 283 23
392 127 95 91 149 206 149 320 l0 53 395 0 395 0 0 -139 0 -139 -87 -6 c-49
-4 -116 -9 -150 -12 l-62 -5 -17 -56 c-10 -30 -35 -89 -56 -130 -21 -41 -38
-76 -38 -78 0 -2 43 -52 95 -111 l95 -108 -157 -158 c-87 -87 -160 -158 -163
-158 -3 0 -55 44 -116 99 l-110 98 -47 -23 c-26 -13 -86 -37 -134 -54 l-88
-29 -6 -58 c-4 -32 -7 -90 -8 -130 -1 -39 -4 -78 -7 -87 -5 -14 -35 -16 -229
-16 l-222 0 -9 151 -9 151 -85 31 c-47 18 -107 45 -133 60 l-49 27 -106 -95
c-59 -52 -109 -95 -112 -95 -3 0 -76 71 -163 158 l-157 157 100 115 c55 62 99
116 97 119 -24 46 -63 141 -80 198 l-22 73 -51 0 c-28 0 -92 3 -142 6 l-92 7
0 -1147 0 -1146 1676 0 1675 0 -6 87 c-3 49 -8 115 -11 149 l-5 61 -56 17
c-30 10 -89 35 -131 57 -41 21 -77 39 -78 39 -2 0 -51 -43 -110 -96 l-108 -95
-158 158 c-87 87 -158 160 -158 163 0 3 44 55 99 116 l98 110 -25 49 c-14 28
-38 88 -53 135 -31 97 -9 86 -199 98 l-115 7 -3 228 -2 227 77 1 c43 1 111 4
152 8 l73 6 29 79 c16 43 42 103 59 133 l31 54 -78 87 c-43 48 -87 97 -97 110
l-20 23 154 154 c85 85 159 155 165 155 6 0 59 -43 118 -95 59 -52 109 -95
112 -95 2 0 35 15 74 34 39 18 100 42 136 51 l65 18 0 52 c0 29 3 93 6 143 l7
92 118 0 119 0 0 -395 0 -395 -47 0 c-214 -1 -416 -178 -453 -399 -30 -177 60
-371 217 -471 63 -40 161 -70 229 -70 l54 0 0 -395 0 -395 703 1 c386 1 682 5
657 9 -101 18 -158 58 -197 138 l-28 57 -3 277 -3 278 100 0 101 0 0 -245 c0
-275 4 -295 65 -321 33 -14 49 -12 91 8 40 19 44 48 44 308 l0 250 100 0 100
0 0 -263 c0 -286 -6 -328 -54 -392 -36 -46 -100 -83 -167 -94 -33 -5 1365 -9
3544 -10 2308 -1 3597 2 3597 9 0 5 -47 11 -107 12 l-107 3 -20 63 -20 62
-111 0 -110 0 -19 -65 -18 -65 -105 0 c-95 0 -104 2 -99 17 4 10 61 176 129
368 l123 350 101 3 101 3 10 -28 c5 -15 62 -179 127 -363 64 -184 119 -337
121 -339 2 -2 4 561 4 1252 l0 1257 -2685 0 c-1477 0 -2685 -2 -2685 -4 0 -2
151 -361 336 -797 185 -437 338 -802 341 -811 5 -17 -11 -18 -240 -18 l-245 0
-58 145 -59 145 -304 -2 -305 -3 -56 -140 -56 -140 -243 -3 c-193 -2 -242 0
-238 10 3 7 156 370 341 807 185 437 336 798 336 802 0 5 -1455 8 -3232 7
-1778 -2 -3054 -4 -2835 -5z m4281 -308 c104 -168 191 -303 196 -300 4 2 90
139 191 304 l184 300 243 1 242 0 0 -810 0 -810 -230 0 -230 0 -2 447 -3 448
-195 -299 c-108 -165 -200 -301 -206 -303 -5 -2 -100 134 -209 302 l-200 304
-3 -449 -2 -450 -220 0 -220 0 0 810 0 810 238 0 238 0 188 -305z m3408 -15
l3 -320 270 320 270 319 274 0 c260 1 273 0 259 -16 -8 -10 -146 -168 -307
-350 l-292 -333 284 -412 c156 -227 298 -434 316 -461 l32 -47 -278 2 -277 3
-194 285 c-106 157 -196 286 -201 288 -5 1 -43 -35 -85 -81 l-76 -84 0 -207 0
-206 -225 0 -225 0 0 810 0 810 225 0 225 0 2 -320z m2458 125 l0 -195 -430 0
-430 0 0 -120 0 -120 390 0 390 0 0 -180 0 -180 -390 0 -390 0 0 -120 0 -120
435 0 435 0 0 -195 0 -195 -660 0 -660 0 0 810 0 810 655 0 655 0 0 -195z
m1071 180 c327 -49 499 -235 499 -540 0 -171 -40 -277 -144 -380 -33 -34 -87
-76 -119 -94 l-57 -33 83 -121 c46 -67 132 -193 191 -279 l107 -158 -265 0
-266 0 -162 245 -163 244 -92 1 -93 0 0 -245 0 -245 -225 0 -225 0 0 810 0
810 418 0 c313 0 441 -4 513 -15z m-7342 -1882 c37 -68 70 -125 72 -128 3 -2
36 54 75 125 l69 130 103 0 102 0 0 -370 0 -370 -100 0 -100 0 -2 187 -3 188
-65 -114 c-36 -63 -70 -116 -76 -118 -5 -2 -41 51 -80 117 l-69 121 -3 -190
-2 -191 -95 0 -95 0 0 370 0 371 101 -3 101 -3 67 -122z m1361 -153 l0 -280
145 0 145 0 0 -90 0 -90 -245 0 -245 0 0 370 0 370 100 0 100 0 0 -280z m750
190 l0 -90 -90 0 -90 0 0 -280 0 -280 -100 0 -100 0 0 280 0 280 -90 0 -90 0
0 90 0 90 280 0 280 0 0 -90z m230 -280 l0 -370 -95 0 -95 0 0 370 0 370 95 0
95 0 0 -370z m475 342 c93 -43 135 -105 143 -212 12 -175 -86 -278 -274 -288
l-84 -5 0 -103 0 -104 -100 0 -100 0 0 371 0 371 183 -4 c162 -3 187 -6 232
-26z m385 -252 l0 -280 140 0 140 0 0 -90 0 -90 -240 0 -240 0 0 370 0 370
100 0 100 0 0 -280z m840 190 l0 -90 -160 0 -160 0 0 -55 0 -55 145 0 145 0 0
-80 0 -80 -145 0 -145 0 0 -60 0 -60 160 0 160 0 0 -85 0 -85 -255 0 -255 0 0
370 0 370 255 0 255 0 0 -90z m294 -12 l48 -103 51 103 52 102 108 0 c91 0
108 -2 104 -14 -3 -8 -49 -90 -101 -181 -53 -92 -96 -168 -96 -170 0 -2 41
-74 91 -161 50 -88 97 -171 105 -187 l15 -27 -114 0 -113 0 -49 100 c-27 55
-52 100 -55 100 -3 0 -28 -45 -55 -100 l-49 -100 -108 0 c-59 0 -108 3 -108 7
0 4 45 86 100 183 55 97 100 180 100 184 0 4 -43 84 -95 176 -52 92 -95 173
-95 179 0 7 36 11 108 11 l108 0 48 -102z m1326 26 l0 -75 -150 -210 -150
-209 150 0 150 0 0 -85 0 -85 -280 0 -280 0 0 75 0 74 145 203 145 203 -140 3
-140 3 0 89 0 90 275 0 275 0 0 -76z m560 -14 l0 -90 -160 0 -160 0 0 -55 0
-55 145 0 145 0 0 -80 0 -80 -145 0 -145 0 0 -60 0 -60 160 0 160 0 0 -85 0
-85 -255 0 -255 0 0 370 0 370 255 0 255 0 0 -90z m580 0 l0 -90 -90 0 -90 0
0 -280 0 -280 -95 0 -95 0 0 280 0 280 -90 0 -90 0 0 90 0 90 275 0 275 0 0
-90z m600 0 l0 -90 -95 0 -95 0 0 -280 0 -280 -95 0 -95 0 0 280 0 280 -90 0
-90 0 0 90 0 90 280 0 280 0 0 -90z m-2470 -145 l0 -95 95 0 95 0 0 -40 0 -40
-95 0 -95 0 0 -95 0 -95 -40 0 -40 0 0 95 0 95 -95 0 -95 0 0 40 0 40 95 0 95
0 0 95 0 95 40 0 40 0 0 -95z"/>
<path d="M11130 1946 l0 -186 178 0 c192 0 235 7 282 47 44 37 60 74 60 141 0
73 -26 116 -90 152 -43 24 -54 25 -237 28 l-193 4 0 -186z"/>
<path d="M6870 490 l0 -100 40 0 c47 0 95 22 110 49 13 26 13 77 -1 103 -13
25 -68 48 -114 48 l-35 0 0 -100z"/>
<path d="M6675 1969 c-3 -8 -41 -104 -84 -214 l-79 -200 166 -3 c90 -1 167 0
169 2 5 4 -153 415 -162 425 -3 2 -7 -2 -10 -10z"/>
<path d="M11887 407 c-15 -46 -27 -86 -27 -90 0 -4 25 -7 55 -7 30 0 55 3 55
6 0 9 -51 174 -54 174 -1 0 -14 -37 -29 -83z"/>
</g>
</svg>
