%TF.GenerationSoftware,KiCad,Pcbnew,7.0.8*%
%TF.CreationDate,2024-03-13T12:39:06-06:00*%
%TF.ProjectId,Flex-E Rex 1_4,466c6578-2d45-4205-9265-7820315f342e,rev?*%
%TF.SameCoordinates,Original*%
%TF.FileFunction,Copper,L1,Top*%
%TF.FilePolarity,Positive*%
%FSLAX46Y46*%
G04 Gerber Fmt 4.6, Leading zero omitted, Abs format (unit mm)*
G04 Created by KiCad (PCBNEW 7.0.8) date 2024-03-13 12:39:06*
%MOMM*%
%LPD*%
G01*
G04 APERTURE LIST*
G04 Aperture macros list*
%AMRoundRect*
0 Rectangle with rounded corners*
0 $1 Rounding radius*
0 $2 $3 $4 $5 $6 $7 $8 $9 X,Y pos of 4 corners*
0 Add a 4 corners polygon primitive as box body*
4,1,4,$2,$3,$4,$5,$6,$7,$8,$9,$2,$3,0*
0 Add four circle primitives for the rounded corners*
1,1,$1+$1,$2,$3*
1,1,$1+$1,$4,$5*
1,1,$1+$1,$6,$7*
1,1,$1+$1,$8,$9*
0 Add four rect primitives between the rounded corners*
20,1,$1+$1,$2,$3,$4,$5,0*
20,1,$1+$1,$4,$5,$6,$7,0*
20,1,$1+$1,$6,$7,$8,$9,0*
20,1,$1+$1,$8,$9,$2,$3,0*%
%AMHorizOval*
0 Thick line with rounded ends*
0 $1 width*
0 $2 $3 position (X,Y) of the first rounded end (center of the circle)*
0 $4 $5 position (X,Y) of the second rounded end (center of the circle)*
0 Add line between two ends*
20,1,$1,$2,$3,$4,$5,0*
0 Add two circle primitives to create the rounded ends*
1,1,$1,$2,$3*
1,1,$1,$4,$5*%
G04 Aperture macros list end*
%TA.AperFunction,ComponentPad*%
%ADD10HorizOval,1.700000X0.088168X-0.121353X-0.088168X0.121353X0*%
%TD*%
%TA.AperFunction,ComponentPad*%
%ADD11RoundRect,0.450000X0.965126X-0.416571X0.933717X0.482880X-0.965126X0.416571X-0.933717X-0.482880X0*%
%TD*%
%TA.AperFunction,ComponentPad*%
%ADD12HorizOval,1.800000X0.499695X0.017450X-0.499695X-0.017450X0*%
%TD*%
%TA.AperFunction,SMDPad,CuDef*%
%ADD13O,18.000000X16.000000*%
%TD*%
%TA.AperFunction,ComponentPad*%
%ADD14C,4.000000*%
%TD*%
%TA.AperFunction,ComponentPad*%
%ADD15C,1.498600*%
%TD*%
%TA.AperFunction,ComponentPad*%
%ADD16HorizOval,1.500000X0.129904X0.075000X-0.129904X-0.075000X0*%
%TD*%
%TA.AperFunction,ComponentPad*%
%ADD17C,1.500000*%
%TD*%
%TA.AperFunction,ComponentPad*%
%ADD18HorizOval,2.500000X0.000000X0.000000X0.000000X0.000000X0*%
%TD*%
%TA.AperFunction,ComponentPad*%
%ADD19HorizOval,2.400000X-0.039932X-0.030091X0.039932X0.030091X0*%
%TD*%
%TA.AperFunction,ComponentPad*%
%ADD20RoundRect,0.450000X0.416571X0.965126X-0.482880X0.933717X-0.416571X-0.965126X0.482880X-0.933717X0*%
%TD*%
%TA.AperFunction,ComponentPad*%
%ADD21HorizOval,1.800000X-0.017450X0.499695X0.017450X-0.499695X0*%
%TD*%
%TA.AperFunction,Conductor*%
%ADD22C,0.500000*%
%TD*%
G04 APERTURE END LIST*
D10*
%TO.P,J1,1,Pin_1*%
%TO.N,+3V0*%
X95231497Y-48650574D03*
%TO.P,J1,2,Pin_2*%
%TO.N,GND*%
X93176594Y-50143549D03*
%TD*%
D11*
%TO.P,D1,1,K*%
%TO.N,Net-(D1-K)*%
X81288122Y-41923462D03*
D12*
%TO.P,D1,3*%
%TO.N,+3V0*%
X81110833Y-36846557D03*
%TD*%
D13*
%TO.P,BT1,-*%
%TO.N,GND*%
X61800000Y-45400000D03*
D14*
%TO.P,BT1,S+1*%
%TO.N,Net-(BT1-PadS+1)*%
X61800000Y-34600000D03*
%TO.P,BT1,S+2*%
X61800000Y-56200000D03*
%TD*%
D15*
%TO.P,SW1,5*%
%TO.N,N/C*%
X90201161Y-38028049D03*
%TO.P,SW1,4*%
X94201161Y-44956252D03*
D16*
%TO.P,SW1,3,3*%
%TO.N,Net-(BT1-PadS+1)*%
X91201161Y-39760099D03*
%TO.P,SW1,2,2*%
%TO.N,+3V0*%
X92201161Y-41492150D03*
D17*
%TO.P,SW1,1,1*%
%TO.N,unconnected-(SW1-Pad1)*%
X93201161Y-43224202D03*
%TD*%
D18*
%TO.P,R2,1*%
%TO.N,Net-(D1-K)*%
X70014170Y-57357199D03*
D19*
%TO.P,R2,2*%
%TO.N,GND*%
X74600000Y-63442802D03*
%TD*%
D18*
%TO.P,R1,1*%
%TO.N,Net-(D2-K)*%
X73807085Y-54657199D03*
%TO.P,R1,2*%
%TO.N,GND*%
X78392915Y-60742802D03*
%TD*%
D20*
%TO.P,D2,1,K*%
%TO.N,Net-(D2-K)*%
X83723462Y-39311879D03*
D21*
%TO.P,D2,3*%
%TO.N,+3V0*%
X78646557Y-39489168D03*
%TD*%
D22*
%TO.N,GND*%
X75157198Y-63442802D02*
X74600000Y-63442802D01*
X78392915Y-60742802D02*
X77857198Y-60742802D01*
X77857198Y-60742802D02*
X75157198Y-63442802D01*
X70842802Y-63442802D02*
X74600000Y-63442802D01*
X66200000Y-58800000D02*
X70842802Y-63442802D01*
X63200000Y-44000000D02*
X61800000Y-45400000D01*
X93176594Y-50143549D02*
X87033045Y-44000000D01*
X87033045Y-44000000D02*
X63200000Y-44000000D01*
X66200000Y-49800000D02*
X61800000Y-45400000D01*
X66200000Y-58800000D02*
X66200000Y-49800000D01*
%TO.N,Net-(BT1-PadS+1)*%
X83679802Y-34600000D02*
X61800000Y-34600000D01*
X88839901Y-39760099D02*
X83679802Y-34600000D01*
X88839901Y-39760099D02*
X91201161Y-39760099D01*
X61800000Y-34600000D02*
X62200000Y-34200000D01*
%TO.N,+3V0*%
X78646557Y-39489168D02*
X78646557Y-39253443D01*
X95150574Y-48650574D02*
X90600000Y-44100000D01*
X84578840Y-36846557D02*
X89224433Y-41492150D01*
X78646557Y-39253443D02*
X81053443Y-36846557D01*
X81053443Y-36846557D02*
X81110833Y-36846557D01*
X90600000Y-41500000D02*
X90607850Y-41492150D01*
X90600000Y-42867717D02*
X89224433Y-41492150D01*
X90607850Y-41492150D02*
X92201161Y-41492150D01*
X95231497Y-48650574D02*
X95150574Y-48650574D01*
X90600000Y-44100000D02*
X90600000Y-42867717D01*
X81110833Y-36846557D02*
X84578840Y-36846557D01*
X89224433Y-41492150D02*
X90607850Y-41492150D01*
%TD*%
%TA.AperFunction,Conductor*%
%TO.N,GND*%
G36*
X76232593Y-62019556D02*
G01*
X76234218Y-62020911D01*
X76576752Y-62363445D01*
X76580179Y-62371718D01*
X76578311Y-62378059D01*
X75666218Y-63792242D01*
X75658854Y-63797338D01*
X75652664Y-63796993D01*
X74606900Y-63446061D01*
X74600147Y-63440180D01*
X74598934Y-63435494D01*
X74549733Y-62334392D01*
X74552787Y-62325976D01*
X74559311Y-62322364D01*
X76223839Y-62017675D01*
X76232593Y-62019556D01*
G37*
%TD.AperFunction*%
%TD*%
%TA.AperFunction,Conductor*%
%TO.N,GND*%
G36*
X77340319Y-60388633D02*
G01*
X78328380Y-60720201D01*
X78386014Y-60739542D01*
X78392767Y-60745423D01*
X78393980Y-60750112D01*
X78443185Y-61851303D01*
X78440131Y-61859721D01*
X78433708Y-61863314D01*
X76776121Y-62182352D01*
X76767350Y-62180551D01*
X76765637Y-62179136D01*
X76423097Y-61836596D01*
X76419670Y-61828323D01*
X76421487Y-61822061D01*
X77326719Y-60393462D01*
X77334040Y-60388310D01*
X77340319Y-60388633D01*
G37*
%TD.AperFunction*%
%TD*%
%TA.AperFunction,Conductor*%
%TO.N,GND*%
G36*
X74300463Y-62447652D02*
G01*
X74306701Y-62454077D01*
X74307040Y-62455057D01*
X74599358Y-63437285D01*
X74598433Y-63446192D01*
X74597631Y-63447469D01*
X73885141Y-64434657D01*
X73877521Y-64439360D01*
X73870323Y-64438225D01*
X72420381Y-63696062D01*
X72414578Y-63689242D01*
X72414012Y-63685647D01*
X72414012Y-63200746D01*
X72417439Y-63192473D01*
X72421393Y-63189871D01*
X74291510Y-62447519D01*
X74300463Y-62447652D01*
G37*
%TD.AperFunction*%
%TD*%
%TA.AperFunction,Conductor*%
%TO.N,GND*%
G36*
X92065537Y-48674759D02*
G01*
X92887618Y-49023702D01*
X93521825Y-49292899D01*
X93528102Y-49299286D01*
X93528043Y-49308195D01*
X93179007Y-50140188D01*
X93173334Y-50146184D01*
X92411466Y-50516608D01*
X92402527Y-50517144D01*
X92395828Y-50511202D01*
X92395741Y-50511020D01*
X92226061Y-50146184D01*
X91708170Y-49032646D01*
X91707790Y-49023702D01*
X91710505Y-49019444D01*
X92052694Y-48677255D01*
X92060966Y-48673829D01*
X92065537Y-48674759D01*
G37*
%TD.AperFunction*%
%TD*%
%TA.AperFunction,Conductor*%
%TO.N,GND*%
G36*
X70482426Y-43159888D02*
G01*
X71097117Y-43467483D01*
X71655226Y-43746765D01*
X71661091Y-43753532D01*
X71661690Y-43757228D01*
X71661690Y-44245169D01*
X71658284Y-44253422D01*
X70784337Y-45131725D01*
X70776388Y-45135167D01*
X61903309Y-45396922D01*
X61894938Y-45393741D01*
X61891269Y-45385572D01*
X61894450Y-45377201D01*
X61900034Y-45373900D01*
X70474264Y-43159023D01*
X70482426Y-43159888D01*
G37*
%TD.AperFunction*%
%TD*%
%TA.AperFunction,Conductor*%
%TO.N,GND*%
G36*
X61850900Y-45475055D02*
G01*
X61855776Y-45479071D01*
X66661392Y-52377815D01*
X66663325Y-52386473D01*
X66451662Y-53625456D01*
X66446891Y-53633034D01*
X66440129Y-53635186D01*
X65952444Y-53635186D01*
X65947761Y-53634208D01*
X64801764Y-53133705D01*
X64795554Y-53127253D01*
X64795538Y-53127212D01*
X64508420Y-52386473D01*
X61835267Y-45489985D01*
X61835472Y-45481035D01*
X61841947Y-45474850D01*
X61850900Y-45475055D01*
G37*
%TD.AperFunction*%
%TD*%
%TA.AperFunction,Conductor*%
%TO.N,Net-(BT1-PadS+1)*%
G36*
X63525516Y-33603449D02*
G01*
X64794215Y-34346611D01*
X64799620Y-34353749D01*
X64800000Y-34356706D01*
X64800000Y-34843293D01*
X64796573Y-34851566D01*
X64794214Y-34853389D01*
X63525517Y-35596549D01*
X63516646Y-35597773D01*
X63513724Y-35596569D01*
X62914130Y-35248095D01*
X61816404Y-34610115D01*
X61810974Y-34602996D01*
X61812168Y-34594121D01*
X61816403Y-34589885D01*
X63513725Y-33603429D01*
X63522599Y-33602236D01*
X63525516Y-33603449D01*
G37*
%TD.AperFunction*%
%TD*%
%TA.AperFunction,Conductor*%
%TO.N,Net-(BT1-PadS+1)*%
G36*
X90953878Y-39039966D02*
G01*
X90959828Y-39046658D01*
X90959853Y-39046732D01*
X91200472Y-39755129D01*
X91199888Y-39764065D01*
X91199572Y-39764663D01*
X90782009Y-40501050D01*
X90774947Y-40506556D01*
X90767292Y-40506063D01*
X89596166Y-40013113D01*
X89589870Y-40006745D01*
X89589005Y-40002329D01*
X89589005Y-39518422D01*
X89592432Y-39510149D01*
X89596865Y-39507370D01*
X90944938Y-39039442D01*
X90953878Y-39039966D01*
G37*
%TD.AperFunction*%
%TD*%
%TA.AperFunction,Conductor*%
%TO.N,+3V0*%
G36*
X94081408Y-47223495D02*
G01*
X94088252Y-47226137D01*
X95551467Y-47791013D01*
X95557950Y-47797189D01*
X95558168Y-47806137D01*
X95233861Y-48646983D01*
X95228061Y-48653295D01*
X94466026Y-49023799D01*
X94457087Y-49024335D01*
X94450467Y-49018553D01*
X94265918Y-48653295D01*
X93724571Y-47581864D01*
X93723900Y-47572936D01*
X93726740Y-47568318D01*
X94068922Y-47226136D01*
X94077194Y-47222710D01*
X94081408Y-47223495D01*
G37*
%TD.AperFunction*%
%TD*%
%TA.AperFunction,Conductor*%
%TO.N,+3V0*%
G36*
X81111721Y-36849271D02*
G01*
X81114772Y-36853505D01*
X81482030Y-37723330D01*
X81482091Y-37732285D01*
X81475925Y-37738607D01*
X79780036Y-38477639D01*
X79771083Y-38477802D01*
X79767089Y-38475186D01*
X79423874Y-38131971D01*
X79420447Y-38123698D01*
X79420803Y-38120836D01*
X79718877Y-36943097D01*
X79724229Y-36935919D01*
X79729468Y-36934294D01*
X81103247Y-36846380D01*
X81111721Y-36849271D01*
G37*
%TD.AperFunction*%
%TD*%
%TA.AperFunction,Conductor*%
%TO.N,+3V0*%
G36*
X79841003Y-37710456D02*
G01*
X79844001Y-37712626D01*
X80187196Y-38055821D01*
X80190623Y-38064094D01*
X80189920Y-38068089D01*
X79562149Y-39796302D01*
X79556103Y-39802908D01*
X79547309Y-39803358D01*
X78653731Y-39492615D01*
X78647042Y-39486661D01*
X78645874Y-39481530D01*
X78649852Y-38106960D01*
X78653303Y-38098699D01*
X78657894Y-38095882D01*
X79832074Y-37709784D01*
X79841003Y-37710456D01*
G37*
%TD.AperFunction*%
%TD*%
%TA.AperFunction,Conductor*%
%TO.N,+3V0*%
G36*
X91953878Y-40772017D02*
G01*
X91959828Y-40778709D01*
X91959853Y-40778783D01*
X92200472Y-41487180D01*
X92199888Y-41496116D01*
X92199572Y-41496714D01*
X91782009Y-42233101D01*
X91774947Y-42238607D01*
X91767292Y-42238114D01*
X90596166Y-41745164D01*
X90589870Y-41738796D01*
X90589005Y-41734380D01*
X90589005Y-41250473D01*
X90592432Y-41242200D01*
X90596865Y-41239421D01*
X91944938Y-40771493D01*
X91953878Y-40772017D01*
G37*
%TD.AperFunction*%
%TD*%
%TA.AperFunction,Conductor*%
%TO.N,+3V0*%
G36*
X81933139Y-35989171D02*
G01*
X83394795Y-36593568D01*
X83401130Y-36599895D01*
X83402023Y-36604379D01*
X83402023Y-37088552D01*
X83398596Y-37096825D01*
X83394563Y-37099457D01*
X81990535Y-37645434D01*
X81981583Y-37645238D01*
X81978388Y-37643153D01*
X81601927Y-37297881D01*
X81118600Y-36854597D01*
X81114819Y-36846479D01*
X81117885Y-36838066D01*
X81117955Y-36837991D01*
X81920184Y-35991933D01*
X81928361Y-35988288D01*
X81933139Y-35989171D01*
G37*
%TD.AperFunction*%
%TD*%
M02*
