%TF.GenerationSoftware,KiCad,Pcbnew,7.0.8*%
%TF.CreationDate,2024-01-24T13:43:59-07:00*%
%TF.ProjectId,Flex-E Rex 1_4,466c6578-2d45-4205-9265-7820315f342e,rev?*%
%TF.SameCoordinates,Original*%
%TF.FileFunction,Legend,Top*%
%TF.FilePolarity,Positive*%
%FSLAX46Y46*%
G04 Gerber Fmt 4.6, Leading zero omitted, Abs format (unit mm)*
G04 Created by KiCad (PCBNEW 7.0.8) date 2024-01-24 13:43:59*
%MOMM*%
%LPD*%
G01*
G04 APERTURE LIST*
%ADD10C,0.000000*%
%ADD11C,0.150000*%
%ADD12C,0.200000*%
%ADD13C,0.250000*%
%ADD14C,0.400000*%
%ADD15C,0.375000*%
%ADD16C,0.280000*%
%ADD17C,0.100000*%
%ADD18C,0.300000*%
G04 APERTURE END LIST*
D10*
G36*
X65042604Y-59571250D02*
G01*
X65035447Y-59582232D01*
X65029685Y-59590887D01*
X65027134Y-59594585D01*
X65024698Y-59597993D01*
X65022302Y-59601206D01*
X65019867Y-59604323D01*
X65017315Y-59607440D01*
X65014570Y-59610654D01*
X65008188Y-59617759D01*
X65000100Y-59626415D01*
X64989688Y-59637396D01*
X64975425Y-59638753D01*
X64964263Y-59639722D01*
X64955271Y-59640303D01*
X64951299Y-59640448D01*
X64947520Y-59640497D01*
X64943818Y-59640448D01*
X64940078Y-59640303D01*
X64932017Y-59639722D01*
X64922405Y-59638753D01*
X64910313Y-59637396D01*
X64897083Y-59558021D01*
X64923541Y-59558021D01*
X64936771Y-59584479D01*
X64963230Y-59544792D01*
X65002917Y-59544792D01*
X65016146Y-59518334D01*
X65042604Y-59571250D01*
G37*
G36*
X64791250Y-59637396D02*
G01*
X64857396Y-59597709D01*
X64870626Y-59677084D01*
X64778021Y-59703542D01*
X64778021Y-59650625D01*
X64725104Y-59663854D01*
X64716784Y-59645148D01*
X64713826Y-59638275D01*
X64711255Y-59632022D01*
X64708762Y-59625614D01*
X64706036Y-59618276D01*
X64698646Y-59597709D01*
X64711875Y-59571250D01*
X64751563Y-59624167D01*
X64764792Y-59571250D01*
X64791250Y-59571250D01*
X64791250Y-59637396D01*
G37*
G36*
X58600000Y-61000000D02*
G01*
X58592108Y-61008185D01*
X58584509Y-61015821D01*
X58580758Y-61019449D01*
X58577004Y-61022959D01*
X58573224Y-61026356D01*
X58569392Y-61029648D01*
X58565483Y-61032840D01*
X58561472Y-61035939D01*
X58557334Y-61038950D01*
X58553043Y-61041880D01*
X58548575Y-61044736D01*
X58543904Y-61047523D01*
X58539006Y-61050248D01*
X58533855Y-61052917D01*
X58529990Y-61075984D01*
X58526488Y-61099112D01*
X58523361Y-61122293D01*
X58520625Y-61145521D01*
X58547084Y-61158750D01*
X58519971Y-61166045D01*
X58493690Y-61172152D01*
X58467918Y-61177096D01*
X58455123Y-61179139D01*
X58442334Y-61180901D01*
X58429510Y-61182384D01*
X58416613Y-61183591D01*
X58403602Y-61184525D01*
X58390435Y-61185189D01*
X58363477Y-61185721D01*
X58335417Y-61185208D01*
X58337357Y-61179940D01*
X58339430Y-61174852D01*
X58341633Y-61169938D01*
X58343961Y-61165190D01*
X58346412Y-61160602D01*
X58348983Y-61156166D01*
X58351670Y-61151876D01*
X58354470Y-61147723D01*
X58360397Y-61139805D01*
X58366735Y-61132354D01*
X58373461Y-61125315D01*
X58380546Y-61118630D01*
X58387965Y-61112242D01*
X58395691Y-61106096D01*
X58403699Y-61100134D01*
X58411962Y-61094300D01*
X58429148Y-61082788D01*
X58447038Y-61071107D01*
X58470525Y-61055294D01*
X58502146Y-61034195D01*
X58533855Y-61013229D01*
X58573542Y-60986771D01*
X58600000Y-61000000D01*
G37*
G36*
X61259063Y-62031875D02*
G01*
X61298751Y-62045104D01*
X61298751Y-62217083D01*
X61285521Y-62217083D01*
X61272292Y-62098021D01*
X61232604Y-62111250D01*
X61232878Y-62095973D01*
X61233660Y-62080967D01*
X61234894Y-62066153D01*
X61236522Y-62051452D01*
X61238487Y-62036784D01*
X61240732Y-62022071D01*
X61245834Y-61992188D01*
X61259063Y-62031875D01*
G37*
G36*
X64844167Y-60087188D02*
G01*
X64844167Y-60126875D01*
X64807373Y-60112302D01*
X64795100Y-60107342D01*
X64785462Y-60103311D01*
X64777375Y-60099745D01*
X64769753Y-60096179D01*
X64751563Y-60087188D01*
X64764792Y-60047500D01*
X64844167Y-60087188D01*
G37*
G36*
X61854375Y-62441979D02*
G01*
X61844479Y-62446914D01*
X61836599Y-62450764D01*
X61829958Y-62453839D01*
X61826861Y-62455183D01*
X61823783Y-62456449D01*
X61820627Y-62457676D01*
X61817297Y-62458903D01*
X61809727Y-62461513D01*
X61800296Y-62464588D01*
X61788230Y-62468438D01*
X61778088Y-62464588D01*
X61770194Y-62461513D01*
X61763929Y-62458903D01*
X61761212Y-62457676D01*
X61758670Y-62456449D01*
X61756225Y-62455183D01*
X61753800Y-62453839D01*
X61751316Y-62452379D01*
X61748697Y-62450764D01*
X61742741Y-62446914D01*
X61735313Y-62441979D01*
X61735313Y-62415521D01*
X61775000Y-62389063D01*
X61827917Y-62415521D01*
X61854375Y-62389063D01*
X61854375Y-62441979D01*
G37*
G36*
X63269787Y-61114612D02*
G01*
X63279776Y-61121491D01*
X63283780Y-61124399D01*
X63287221Y-61127050D01*
X63290174Y-61129517D01*
X63292711Y-61131872D01*
X63294907Y-61134187D01*
X63296835Y-61136536D01*
X63298569Y-61138991D01*
X63300182Y-61141624D01*
X63301747Y-61144507D01*
X63303339Y-61147715D01*
X63306896Y-61155391D01*
X63307424Y-61162980D01*
X63307628Y-61170334D01*
X63307527Y-61177485D01*
X63307138Y-61184461D01*
X63306478Y-61191293D01*
X63305565Y-61198010D01*
X63304418Y-61204642D01*
X63303053Y-61211218D01*
X63301488Y-61217769D01*
X63299742Y-61224325D01*
X63295774Y-61237567D01*
X63291290Y-61251183D01*
X63286432Y-61265410D01*
X63272583Y-61307217D01*
X63267092Y-61319676D01*
X63264447Y-61325414D01*
X63261816Y-61330862D01*
X63259161Y-61336048D01*
X63256441Y-61340998D01*
X63253616Y-61345740D01*
X63250648Y-61350303D01*
X63247496Y-61354713D01*
X63244122Y-61358999D01*
X63240485Y-61363188D01*
X63236546Y-61367308D01*
X63232266Y-61371386D01*
X63227604Y-61375449D01*
X63222522Y-61379527D01*
X63216979Y-61383646D01*
X63193198Y-61385256D01*
X63181861Y-61385733D01*
X63170829Y-61385951D01*
X63160055Y-61385880D01*
X63149493Y-61385487D01*
X63139093Y-61384744D01*
X63128809Y-61383618D01*
X63118593Y-61382080D01*
X63108397Y-61380099D01*
X63098175Y-61377644D01*
X63087879Y-61374685D01*
X63077461Y-61371190D01*
X63066873Y-61367129D01*
X63056069Y-61362472D01*
X63045000Y-61357188D01*
X63045000Y-61277813D01*
X63018542Y-61277813D01*
X63018542Y-61211667D01*
X63058229Y-61211667D01*
X63058229Y-61238125D01*
X63073056Y-61239936D01*
X63084784Y-61241230D01*
X63089824Y-61241683D01*
X63094497Y-61242006D01*
X63098937Y-61242200D01*
X63103281Y-61242265D01*
X63107664Y-61242200D01*
X63112222Y-61242006D01*
X63117090Y-61241683D01*
X63122404Y-61241230D01*
X63134913Y-61239936D01*
X63150834Y-61238125D01*
X63160102Y-61228231D01*
X63163897Y-61224088D01*
X63167210Y-61220352D01*
X63170099Y-61216926D01*
X63172622Y-61213712D01*
X63174837Y-61210615D01*
X63176803Y-61207537D01*
X63178577Y-61204382D01*
X63180218Y-61201052D01*
X63181784Y-61197450D01*
X63183333Y-61193480D01*
X63184923Y-61189045D01*
X63186612Y-61184048D01*
X63190521Y-61171979D01*
X63177292Y-61145521D01*
X63230208Y-61171979D01*
X63256667Y-61145521D01*
X63256667Y-61105834D01*
X63269787Y-61114612D01*
G37*
G36*
X64309824Y-59106717D02*
G01*
X64318979Y-59107284D01*
X64328229Y-59108229D01*
X64340576Y-59114560D01*
X64352820Y-59121089D01*
X64364965Y-59127803D01*
X64377012Y-59134688D01*
X64389970Y-59141324D01*
X64402958Y-59147035D01*
X64415984Y-59151878D01*
X64429058Y-59155907D01*
X64442187Y-59159180D01*
X64455381Y-59161750D01*
X64468649Y-59163676D01*
X64481998Y-59165011D01*
X64495439Y-59165812D01*
X64508980Y-59166134D01*
X64522629Y-59166034D01*
X64536396Y-59165567D01*
X64564317Y-59163756D01*
X64592813Y-59161146D01*
X64612746Y-59154804D01*
X64632625Y-59148290D01*
X64652442Y-59141590D01*
X64672188Y-59134688D01*
X64693549Y-59131921D01*
X64714943Y-59130626D01*
X64736345Y-59130706D01*
X64757726Y-59132069D01*
X64779061Y-59134620D01*
X64800321Y-59138264D01*
X64821480Y-59142906D01*
X64842512Y-59148453D01*
X64863388Y-59154810D01*
X64884083Y-59161883D01*
X64904568Y-59169577D01*
X64924818Y-59177798D01*
X64964501Y-59195443D01*
X65002917Y-59214063D01*
X65002917Y-59240521D01*
X65026688Y-59250288D01*
X65031602Y-59253205D01*
X65036372Y-59256244D01*
X65041004Y-59259399D01*
X65045502Y-59262669D01*
X65054113Y-59269534D01*
X65062241Y-59276813D01*
X65069923Y-59284475D01*
X65077194Y-59292494D01*
X65084089Y-59300840D01*
X65090646Y-59309486D01*
X65096900Y-59318403D01*
X65102886Y-59327563D01*
X65108642Y-59336938D01*
X65114202Y-59346499D01*
X65119603Y-59356218D01*
X65124880Y-59366067D01*
X65135208Y-59386042D01*
X65136895Y-59396645D01*
X65138222Y-59406537D01*
X65139178Y-59415810D01*
X65139752Y-59424555D01*
X65139934Y-59432864D01*
X65139713Y-59440829D01*
X65139077Y-59448540D01*
X65138015Y-59456089D01*
X65136517Y-59463568D01*
X65134572Y-59471069D01*
X65132167Y-59478682D01*
X65129294Y-59486500D01*
X65125940Y-59494613D01*
X65122094Y-59503113D01*
X65117746Y-59512092D01*
X65112884Y-59521641D01*
X65107236Y-59528205D01*
X65101674Y-59534364D01*
X65096167Y-59540152D01*
X65090686Y-59545605D01*
X65085202Y-59550758D01*
X65079684Y-59555646D01*
X65074104Y-59560304D01*
X65068430Y-59564768D01*
X65062635Y-59569073D01*
X65056687Y-59573254D01*
X65050558Y-59577346D01*
X65044217Y-59581385D01*
X65037635Y-59585405D01*
X65030782Y-59589443D01*
X65016146Y-59597709D01*
X64989688Y-59637396D01*
X64961266Y-59638791D01*
X64951086Y-59639140D01*
X64942146Y-59639256D01*
X64933361Y-59639140D01*
X64923645Y-59638791D01*
X64897083Y-59637396D01*
X64897083Y-59663854D01*
X64778021Y-59703542D01*
X64778021Y-59650625D01*
X64725104Y-59663854D01*
X64711875Y-59624167D01*
X64672188Y-59637396D01*
X64672188Y-59610938D01*
X64632500Y-59624167D01*
X64619271Y-59597709D01*
X64608686Y-59598227D01*
X64600313Y-59598759D01*
X64596714Y-59599079D01*
X64593377Y-59599461D01*
X64590206Y-59599924D01*
X64587103Y-59600488D01*
X64583972Y-59601171D01*
X64580716Y-59601993D01*
X64577238Y-59602975D01*
X64573441Y-59604134D01*
X64564502Y-59607063D01*
X64553125Y-59610938D01*
X64544249Y-59623229D01*
X64536215Y-59635528D01*
X64529003Y-59647861D01*
X64522589Y-59660252D01*
X64516954Y-59672726D01*
X64512076Y-59685309D01*
X64507933Y-59698025D01*
X64504504Y-59710900D01*
X64501768Y-59723958D01*
X64499703Y-59737225D01*
X64498287Y-59750725D01*
X64497500Y-59764484D01*
X64497320Y-59778526D01*
X64497726Y-59792877D01*
X64498696Y-59807561D01*
X64500208Y-59822604D01*
X64511643Y-59842539D01*
X64517397Y-59852100D01*
X64523243Y-59861364D01*
X64529232Y-59870308D01*
X64535417Y-59878913D01*
X64541847Y-59887156D01*
X64548576Y-59895018D01*
X64555653Y-59902477D01*
X64563131Y-59909513D01*
X64571060Y-59916105D01*
X64579491Y-59922231D01*
X64588477Y-59927871D01*
X64598068Y-59933005D01*
X64608316Y-59937610D01*
X64619271Y-59941667D01*
X64619271Y-59968125D01*
X64638738Y-59976021D01*
X64646846Y-59979174D01*
X64654104Y-59981823D01*
X64660686Y-59983988D01*
X64666765Y-59985687D01*
X64672518Y-59986941D01*
X64678117Y-59987767D01*
X64683738Y-59988187D01*
X64689555Y-59988219D01*
X64695741Y-59987883D01*
X64702473Y-59987198D01*
X64709923Y-59986183D01*
X64718267Y-59984858D01*
X64738333Y-59981354D01*
X64738333Y-60021042D01*
X64778021Y-60034271D01*
X64804479Y-60073959D01*
X64844994Y-60086361D01*
X64883854Y-60100417D01*
X64887678Y-60109744D01*
X64890572Y-60117057D01*
X64891719Y-60120151D01*
X64892691Y-60122974D01*
X64893508Y-60125603D01*
X64894190Y-60128115D01*
X64894755Y-60130590D01*
X64895223Y-60133102D01*
X64895614Y-60135731D01*
X64895947Y-60138554D01*
X64896515Y-60145091D01*
X64897083Y-60153334D01*
X64950000Y-60166563D01*
X64948698Y-60176965D01*
X64947164Y-60186677D01*
X64945368Y-60195762D01*
X64943277Y-60204284D01*
X64940860Y-60212305D01*
X64938087Y-60219889D01*
X64934925Y-60227100D01*
X64931344Y-60234001D01*
X64927313Y-60240654D01*
X64922800Y-60247123D01*
X64917774Y-60253472D01*
X64912204Y-60259764D01*
X64906058Y-60266062D01*
X64899305Y-60272429D01*
X64891914Y-60278929D01*
X64883854Y-60285625D01*
X64870706Y-60293590D01*
X64857695Y-60300666D01*
X64844785Y-60306874D01*
X64831940Y-60312239D01*
X64819126Y-60316782D01*
X64806307Y-60320528D01*
X64793448Y-60323498D01*
X64780513Y-60325715D01*
X64767467Y-60327203D01*
X64754274Y-60327984D01*
X64740900Y-60328082D01*
X64727309Y-60327518D01*
X64713466Y-60326316D01*
X64699335Y-60324499D01*
X64684881Y-60322090D01*
X64670069Y-60319112D01*
X64659694Y-60315926D01*
X64649590Y-60312596D01*
X64639731Y-60309115D01*
X64630093Y-60305476D01*
X64620650Y-60301671D01*
X64611378Y-60297693D01*
X64602251Y-60293534D01*
X64593245Y-60289187D01*
X64584334Y-60284645D01*
X64575494Y-60279900D01*
X64557925Y-60269774D01*
X64540338Y-60258748D01*
X64522533Y-60246765D01*
X64505032Y-60236343D01*
X64487192Y-60226947D01*
X64469038Y-60218497D01*
X64450596Y-60210916D01*
X64431892Y-60204125D01*
X64412951Y-60198046D01*
X64393798Y-60192601D01*
X64374459Y-60187712D01*
X64354959Y-60183302D01*
X64335324Y-60179291D01*
X64295752Y-60172157D01*
X64216108Y-60159251D01*
X64181795Y-60152797D01*
X64147617Y-60145742D01*
X64113524Y-60138269D01*
X64079469Y-60130557D01*
X64070356Y-60129642D01*
X64061666Y-60129250D01*
X64053350Y-60129360D01*
X64045361Y-60129949D01*
X64037652Y-60130997D01*
X64030176Y-60132480D01*
X64022885Y-60134379D01*
X64015733Y-60136671D01*
X64008671Y-60139334D01*
X64001653Y-60142347D01*
X63994632Y-60145689D01*
X63987559Y-60149337D01*
X63973072Y-60157466D01*
X63957813Y-60166563D01*
X63947290Y-60175754D01*
X63936843Y-60185031D01*
X63926468Y-60194388D01*
X63916162Y-60203822D01*
X63906349Y-60212135D01*
X63896447Y-60220137D01*
X63886451Y-60227849D01*
X63876360Y-60235292D01*
X63866172Y-60242487D01*
X63855883Y-60249455D01*
X63834996Y-60262794D01*
X63813681Y-60275475D01*
X63791918Y-60287668D01*
X63769688Y-60299539D01*
X63746973Y-60311257D01*
X63714029Y-60328539D01*
X63690513Y-60340479D01*
X63666938Y-60352034D01*
X63643275Y-60363225D01*
X63619496Y-60374072D01*
X63595573Y-60384595D01*
X63571478Y-60394814D01*
X63547183Y-60404750D01*
X63522658Y-60414422D01*
X63496322Y-60423937D01*
X63485433Y-60428000D01*
X63475790Y-60431763D01*
X63467189Y-60435350D01*
X63459423Y-60438884D01*
X63452288Y-60442488D01*
X63445578Y-60446283D01*
X63439089Y-60450394D01*
X63432615Y-60454944D01*
X63425951Y-60460054D01*
X63418892Y-60465849D01*
X63411233Y-60472450D01*
X63402769Y-60479982D01*
X63382603Y-60498325D01*
X63379277Y-60508079D01*
X63376724Y-60515782D01*
X63374774Y-60522138D01*
X63373972Y-60525031D01*
X63373257Y-60527851D01*
X63372608Y-60530685D01*
X63372004Y-60533622D01*
X63370846Y-60540156D01*
X63369612Y-60548154D01*
X63368133Y-60558322D01*
X63366797Y-60565210D01*
X63365292Y-60571880D01*
X63363624Y-60578356D01*
X63361797Y-60584663D01*
X63359817Y-60590824D01*
X63357689Y-60596865D01*
X63355418Y-60602810D01*
X63353010Y-60608684D01*
X63347803Y-60620315D01*
X63342109Y-60631954D01*
X63335970Y-60643798D01*
X63329427Y-60656042D01*
X63318147Y-60678581D01*
X63307624Y-60701202D01*
X63297790Y-60723953D01*
X63288581Y-60746878D01*
X63279930Y-60770025D01*
X63271771Y-60793438D01*
X63264039Y-60817165D01*
X63256667Y-60841250D01*
X63283849Y-60844713D01*
X63343977Y-60853890D01*
X63390003Y-60861540D01*
X63408645Y-60865119D01*
X63424863Y-60868707D01*
X63439024Y-60872436D01*
X63451495Y-60876435D01*
X63462643Y-60880836D01*
X63472836Y-60885769D01*
X63482440Y-60891365D01*
X63491822Y-60897754D01*
X63501350Y-60905067D01*
X63511391Y-60913434D01*
X63534479Y-60933854D01*
X63543046Y-60949813D01*
X63551197Y-60965741D01*
X63558870Y-60981662D01*
X63566006Y-60997599D01*
X63572542Y-61013574D01*
X63578418Y-61029611D01*
X63583573Y-61045733D01*
X63587944Y-61061962D01*
X63591472Y-61078322D01*
X63594094Y-61094836D01*
X63595750Y-61111527D01*
X63596379Y-61128417D01*
X63595919Y-61145531D01*
X63594309Y-61162890D01*
X63591489Y-61180518D01*
X63587396Y-61198438D01*
X63581079Y-61206654D01*
X63576079Y-61213010D01*
X63573928Y-61215636D01*
X63571932Y-61217971D01*
X63570033Y-61220074D01*
X63568172Y-61222002D01*
X63566293Y-61223814D01*
X63564335Y-61225568D01*
X63562243Y-61227322D01*
X63559956Y-61229133D01*
X63554569Y-61233164D01*
X63547709Y-61238125D01*
X63521250Y-61238125D01*
X63521250Y-61264584D01*
X63481563Y-61277813D01*
X63468334Y-61224896D01*
X63430300Y-61232338D01*
X63416602Y-61234222D01*
X63410959Y-61234934D01*
X63405986Y-61235477D01*
X63401585Y-61235841D01*
X63397656Y-61236015D01*
X63394101Y-61235987D01*
X63390819Y-61235748D01*
X63387711Y-61235286D01*
X63384679Y-61234590D01*
X63381623Y-61233650D01*
X63378442Y-61232454D01*
X63375039Y-61230991D01*
X63371314Y-61229251D01*
X63362500Y-61224896D01*
X63363883Y-61216382D01*
X63365032Y-61209651D01*
X63366105Y-61204083D01*
X63367254Y-61199058D01*
X63368637Y-61193955D01*
X63370407Y-61188154D01*
X63372719Y-61181036D01*
X63375730Y-61171979D01*
X63415417Y-61158750D01*
X63420358Y-61151235D01*
X63424721Y-61144347D01*
X63428541Y-61137985D01*
X63431852Y-61132051D01*
X63434688Y-61126444D01*
X63437084Y-61121065D01*
X63439073Y-61115815D01*
X63440691Y-61110592D01*
X63441971Y-61105299D01*
X63442947Y-61099835D01*
X63443655Y-61094100D01*
X63444127Y-61087995D01*
X63444400Y-61081420D01*
X63444505Y-61074275D01*
X63444356Y-61057878D01*
X63444097Y-61025942D01*
X63444258Y-61017341D01*
X63444261Y-61013810D01*
X63444182Y-61010716D01*
X63444000Y-61008001D01*
X63443690Y-61005609D01*
X63443232Y-61003481D01*
X63442939Y-61002498D01*
X63442601Y-61001560D01*
X63442214Y-61000660D01*
X63441776Y-60999790D01*
X63441283Y-60998943D01*
X63440733Y-60998111D01*
X63439450Y-60996468D01*
X63437905Y-60994803D01*
X63436075Y-60993058D01*
X63433936Y-60991176D01*
X63428646Y-60986771D01*
X63391302Y-60983394D01*
X63353955Y-60980223D01*
X63316586Y-60977354D01*
X63279172Y-60974886D01*
X63252288Y-60972457D01*
X63241251Y-60971314D01*
X63231578Y-60970124D01*
X63223090Y-60968816D01*
X63215606Y-60967317D01*
X63208946Y-60965558D01*
X63202932Y-60963466D01*
X63197383Y-60960970D01*
X63192119Y-60958000D01*
X63186961Y-60954483D01*
X63181729Y-60950348D01*
X63176243Y-60945524D01*
X63170324Y-60939940D01*
X63156466Y-60926206D01*
X63137604Y-60894167D01*
X63084688Y-60973542D01*
X63121927Y-61000553D01*
X63135493Y-61010189D01*
X63147690Y-61018601D01*
X63160023Y-61026806D01*
X63173992Y-61035823D01*
X63212845Y-61060358D01*
X63227650Y-61069793D01*
X63234806Y-61074587D01*
X63241780Y-61079472D01*
X63248556Y-61084474D01*
X63255119Y-61089623D01*
X63261456Y-61094948D01*
X63267551Y-61100475D01*
X63273390Y-61106235D01*
X63278958Y-61112255D01*
X63284241Y-61118565D01*
X63289224Y-61125192D01*
X63293892Y-61132164D01*
X63298231Y-61139511D01*
X63302226Y-61147262D01*
X63305863Y-61155443D01*
X63306646Y-61163071D01*
X63307066Y-61170447D01*
X63307145Y-61177602D01*
X63306902Y-61184569D01*
X63306359Y-61191381D01*
X63305536Y-61198070D01*
X63304454Y-61204670D01*
X63303132Y-61211212D01*
X63301593Y-61217730D01*
X63299856Y-61224256D01*
X63295870Y-61237463D01*
X63286432Y-61265410D01*
X63272583Y-61307217D01*
X63267092Y-61319676D01*
X63264447Y-61325414D01*
X63261816Y-61330862D01*
X63259161Y-61336048D01*
X63256441Y-61340998D01*
X63253616Y-61345740D01*
X63250648Y-61350303D01*
X63247496Y-61354713D01*
X63244122Y-61358999D01*
X63240485Y-61363188D01*
X63236546Y-61367308D01*
X63232266Y-61371386D01*
X63227604Y-61375449D01*
X63222522Y-61379527D01*
X63216979Y-61383646D01*
X63193198Y-61385256D01*
X63181861Y-61385733D01*
X63170829Y-61385951D01*
X63160055Y-61385880D01*
X63149493Y-61385487D01*
X63139093Y-61384744D01*
X63128809Y-61383618D01*
X63118593Y-61382080D01*
X63108397Y-61380099D01*
X63098175Y-61377644D01*
X63087879Y-61374685D01*
X63077461Y-61371190D01*
X63066873Y-61367129D01*
X63056069Y-61362472D01*
X63045000Y-61357188D01*
X63045000Y-61277813D01*
X63018542Y-61277813D01*
X63018542Y-61211667D01*
X63058229Y-61211667D01*
X63058229Y-61238125D01*
X63073056Y-61239936D01*
X63084784Y-61241230D01*
X63089824Y-61241683D01*
X63094497Y-61242006D01*
X63098938Y-61242200D01*
X63103282Y-61242265D01*
X63107665Y-61242200D01*
X63112222Y-61242006D01*
X63117090Y-61241683D01*
X63122404Y-61241230D01*
X63134913Y-61239936D01*
X63150834Y-61238125D01*
X63158557Y-61227366D01*
X63164560Y-61218869D01*
X63169310Y-61211858D01*
X63171359Y-61208668D01*
X63173270Y-61205560D01*
X63175099Y-61202435D01*
X63176906Y-61199197D01*
X63180683Y-61191997D01*
X63185066Y-61183182D01*
X63190521Y-61171979D01*
X63158120Y-61158905D01*
X63115280Y-61141387D01*
X63072957Y-61124179D01*
X63039661Y-61109288D01*
X63014399Y-61097614D01*
X63004338Y-61092675D01*
X62995756Y-61088168D01*
X62988476Y-61083971D01*
X62982321Y-61079959D01*
X62977115Y-61076008D01*
X62972680Y-61071996D01*
X62968841Y-61067798D01*
X62965421Y-61063290D01*
X62962243Y-61058349D01*
X62959131Y-61052851D01*
X62952396Y-61039688D01*
X62952091Y-61016538D01*
X62951982Y-60993385D01*
X62952080Y-60970233D01*
X62952396Y-60947084D01*
X62916849Y-60958598D01*
X62784448Y-61001425D01*
X62727487Y-61019860D01*
X62644921Y-61046561D01*
X62617874Y-61055305D01*
X62572292Y-61069755D01*
X62526604Y-61083796D01*
X62480790Y-61097418D01*
X62434831Y-61110614D01*
X62427846Y-61113076D01*
X62421297Y-61115573D01*
X62415153Y-61118138D01*
X62409379Y-61120802D01*
X62403943Y-61123596D01*
X62398812Y-61126552D01*
X62393954Y-61129702D01*
X62389335Y-61133077D01*
X62384924Y-61136709D01*
X62380687Y-61140629D01*
X62376591Y-61144870D01*
X62372603Y-61149462D01*
X62368692Y-61154437D01*
X62364823Y-61159828D01*
X62360965Y-61165664D01*
X62357084Y-61171979D01*
X62355338Y-61192925D01*
X62354796Y-61202852D01*
X62354483Y-61212486D01*
X62354402Y-61221882D01*
X62354560Y-61231094D01*
X62354960Y-61240175D01*
X62355608Y-61249180D01*
X62356508Y-61258162D01*
X62357667Y-61267176D01*
X62359088Y-61276275D01*
X62360777Y-61285514D01*
X62362739Y-61294946D01*
X62364979Y-61304625D01*
X62370313Y-61324942D01*
X62375118Y-61343732D01*
X62379484Y-61363088D01*
X62383349Y-61382917D01*
X62386647Y-61403130D01*
X62389315Y-61423636D01*
X62391288Y-61444342D01*
X62392503Y-61465158D01*
X62392895Y-61485994D01*
X62392401Y-61506757D01*
X62390956Y-61527358D01*
X62388496Y-61547705D01*
X62384958Y-61567706D01*
X62380277Y-61587272D01*
X62374389Y-61606310D01*
X62367231Y-61624731D01*
X62358737Y-61642442D01*
X62348701Y-61657324D01*
X62338445Y-61672059D01*
X62328001Y-61686662D01*
X62317396Y-61701146D01*
X62284943Y-61747190D01*
X62267765Y-61771402D01*
X62250477Y-61795528D01*
X62215594Y-61843566D01*
X62195235Y-61871230D01*
X62186937Y-61882807D01*
X62179742Y-61893239D01*
X62173537Y-61902794D01*
X62168209Y-61911740D01*
X62163644Y-61920345D01*
X62159728Y-61928879D01*
X62156348Y-61937609D01*
X62153392Y-61946804D01*
X62150745Y-61956732D01*
X62148294Y-61967661D01*
X62145925Y-61979860D01*
X62143526Y-61993597D01*
X62138182Y-62026759D01*
X62142168Y-62042562D01*
X62146849Y-62058247D01*
X62152205Y-62073780D01*
X62158217Y-62089127D01*
X62164864Y-62104255D01*
X62172128Y-62119130D01*
X62179989Y-62133719D01*
X62188427Y-62147988D01*
X62197422Y-62161903D01*
X62206955Y-62175431D01*
X62217007Y-62188539D01*
X62227557Y-62201192D01*
X62238585Y-62213357D01*
X62250074Y-62225001D01*
X62262002Y-62236090D01*
X62274350Y-62246591D01*
X62283506Y-62251433D01*
X62292579Y-62255964D01*
X62301591Y-62260201D01*
X62310560Y-62264163D01*
X62319509Y-62267871D01*
X62328458Y-62271343D01*
X62337426Y-62274598D01*
X62346434Y-62277655D01*
X62364653Y-62283253D01*
X62383279Y-62288288D01*
X62402474Y-62292915D01*
X62422403Y-62297285D01*
X62486587Y-62311394D01*
X62535529Y-62322923D01*
X62555207Y-62328153D01*
X62572183Y-62333258D01*
X62586827Y-62338411D01*
X62599506Y-62343785D01*
X62610592Y-62349553D01*
X62620452Y-62355889D01*
X62629458Y-62362966D01*
X62637977Y-62370956D01*
X62646380Y-62380034D01*
X62655036Y-62390372D01*
X62674584Y-62415521D01*
X62678679Y-62426774D01*
X62681767Y-62435623D01*
X62682981Y-62439389D01*
X62684002Y-62442845D01*
X62684848Y-62446088D01*
X62685539Y-62449214D01*
X62686095Y-62452321D01*
X62686534Y-62455506D01*
X62686876Y-62458865D01*
X62687141Y-62462495D01*
X62687516Y-62470957D01*
X62687813Y-62481667D01*
X62681495Y-62489612D01*
X62676496Y-62495774D01*
X62674345Y-62498332D01*
X62672349Y-62500619D01*
X62670450Y-62502693D01*
X62668589Y-62504611D01*
X62666709Y-62506433D01*
X62664752Y-62508216D01*
X62662659Y-62510018D01*
X62660373Y-62511898D01*
X62654985Y-62516122D01*
X62648125Y-62521354D01*
X62610918Y-62506471D01*
X62568750Y-62494896D01*
X62529063Y-62521354D01*
X62505974Y-62523335D01*
X62497363Y-62523947D01*
X62489374Y-62524361D01*
X62481003Y-62524619D01*
X62471250Y-62524762D01*
X62443590Y-62524868D01*
X62392430Y-62524972D01*
X62365791Y-62524804D01*
X62325729Y-62524771D01*
X62285667Y-62524972D01*
X62234404Y-62524868D01*
X62187514Y-62524778D01*
X62178171Y-62523909D01*
X62169098Y-62522839D01*
X62160271Y-62521553D01*
X62151667Y-62520040D01*
X62143263Y-62518287D01*
X62135033Y-62516282D01*
X62126955Y-62514012D01*
X62119005Y-62511465D01*
X62111159Y-62508628D01*
X62103393Y-62505488D01*
X62095684Y-62502034D01*
X62088007Y-62498252D01*
X62080340Y-62494130D01*
X62072658Y-62489656D01*
X62064937Y-62484817D01*
X62057154Y-62479600D01*
X62052322Y-62472544D01*
X62047884Y-62465373D01*
X62043809Y-62458092D01*
X62040067Y-62450707D01*
X62036626Y-62443222D01*
X62033455Y-62435645D01*
X62030524Y-62427980D01*
X62027802Y-62420234D01*
X62025257Y-62412411D01*
X62022859Y-62404517D01*
X62018379Y-62388541D01*
X62009818Y-62355990D01*
X62002017Y-62329706D01*
X61993757Y-62304550D01*
X61984833Y-62280301D01*
X61980056Y-62268448D01*
X61975036Y-62256740D01*
X61969747Y-62245149D01*
X61964162Y-62233649D01*
X61958256Y-62222210D01*
X61952002Y-62210807D01*
X61945376Y-62199411D01*
X61938351Y-62187995D01*
X61930902Y-62176532D01*
X61923002Y-62164994D01*
X61916113Y-62154822D01*
X61909753Y-62144991D01*
X61903920Y-62135431D01*
X61898611Y-62126073D01*
X61893824Y-62116849D01*
X61889557Y-62107690D01*
X61885808Y-62098528D01*
X61882574Y-62089292D01*
X61879854Y-62079915D01*
X61877644Y-62070328D01*
X61875944Y-62060462D01*
X61874750Y-62050248D01*
X61874060Y-62039617D01*
X61873872Y-62028501D01*
X61874184Y-62016831D01*
X61874994Y-62004538D01*
X61876620Y-61997929D01*
X61878428Y-61991527D01*
X61880414Y-61985313D01*
X61882574Y-61979267D01*
X61884903Y-61973371D01*
X61887397Y-61967604D01*
X61890052Y-61961948D01*
X61892864Y-61956382D01*
X61895830Y-61950889D01*
X61898944Y-61945447D01*
X61902203Y-61940039D01*
X61905602Y-61934644D01*
X61912805Y-61923817D01*
X61920521Y-61912813D01*
X61922642Y-61905837D01*
X61924563Y-61898937D01*
X61926291Y-61892100D01*
X61927835Y-61885310D01*
X61929203Y-61878556D01*
X61930403Y-61871822D01*
X61931445Y-61865096D01*
X61932336Y-61858364D01*
X61933699Y-61844825D01*
X61934560Y-61831098D01*
X61934985Y-61817072D01*
X61935042Y-61802638D01*
X61934913Y-61770599D01*
X61934577Y-61737526D01*
X61934396Y-61703833D01*
X61933750Y-61621771D01*
X61899851Y-61654017D01*
X61890647Y-61661806D01*
X61881353Y-61669372D01*
X61871969Y-61676731D01*
X61862498Y-61683900D01*
X61843303Y-61697725D01*
X61823782Y-61710972D01*
X61803951Y-61723767D01*
X61783825Y-61736232D01*
X61742754Y-61760677D01*
X61700808Y-61782354D01*
X61668157Y-61799867D01*
X61654515Y-61807669D01*
X61642233Y-61815156D01*
X61630991Y-61822571D01*
X61620468Y-61830156D01*
X61610343Y-61838155D01*
X61600294Y-61846808D01*
X61590002Y-61856358D01*
X61579145Y-61867047D01*
X61554451Y-61892812D01*
X61523646Y-61926042D01*
X61522346Y-61948344D01*
X61521391Y-61970667D01*
X61520736Y-61993001D01*
X61520339Y-62015339D01*
X61519305Y-62063915D01*
X61520606Y-62075838D01*
X61522276Y-62087248D01*
X61524319Y-62098193D01*
X61526741Y-62108723D01*
X61529549Y-62118886D01*
X61532746Y-62128731D01*
X61536339Y-62138307D01*
X61540333Y-62147663D01*
X61544733Y-62156847D01*
X61549545Y-62165909D01*
X61554773Y-62174897D01*
X61560425Y-62183860D01*
X61566504Y-62192848D01*
X61573017Y-62201908D01*
X61579968Y-62211090D01*
X61587363Y-62220442D01*
X61593828Y-62225442D01*
X61600205Y-62230037D01*
X61606518Y-62234258D01*
X61612796Y-62238137D01*
X61619063Y-62241703D01*
X61625346Y-62244988D01*
X61631671Y-62248023D01*
X61638064Y-62250839D01*
X61644551Y-62253467D01*
X61651159Y-62255936D01*
X61657913Y-62258279D01*
X61664840Y-62260526D01*
X61679317Y-62264856D01*
X61694798Y-62269173D01*
X61717888Y-62276614D01*
X61728744Y-62280357D01*
X61739176Y-62284205D01*
X61749212Y-62288223D01*
X61758879Y-62292478D01*
X61768203Y-62297036D01*
X61777211Y-62301962D01*
X61785931Y-62307324D01*
X61794388Y-62313187D01*
X61802611Y-62319617D01*
X61810627Y-62326682D01*
X61818461Y-62334447D01*
X61826141Y-62342978D01*
X61833694Y-62352342D01*
X61841146Y-62362604D01*
X61847399Y-62388494D01*
X61849402Y-62397602D01*
X61850861Y-62405392D01*
X61851934Y-62412795D01*
X61852773Y-62420740D01*
X61853536Y-62430158D01*
X61854375Y-62441979D01*
X61844208Y-62446914D01*
X61836134Y-62450764D01*
X61829377Y-62453839D01*
X61823163Y-62456449D01*
X61816716Y-62458903D01*
X61809262Y-62461513D01*
X61800025Y-62464588D01*
X61788230Y-62468438D01*
X61748542Y-62441979D01*
X61708854Y-62468438D01*
X61689324Y-62469917D01*
X61682163Y-62470342D01*
X61675665Y-62470582D01*
X61669027Y-62470658D01*
X61661445Y-62470589D01*
X61640228Y-62470091D01*
X61604106Y-62469368D01*
X61576563Y-62468438D01*
X61576563Y-62508125D01*
X61536875Y-62508125D01*
X61536875Y-62481667D01*
X61509590Y-62493242D01*
X61501791Y-62493519D01*
X61494758Y-62493634D01*
X61488400Y-62493565D01*
X61482625Y-62493286D01*
X61477340Y-62492776D01*
X61472454Y-62492011D01*
X61467875Y-62490966D01*
X61463509Y-62489619D01*
X61459267Y-62487946D01*
X61455054Y-62485923D01*
X61450779Y-62483528D01*
X61446351Y-62480735D01*
X61441676Y-62477523D01*
X61436663Y-62473867D01*
X61425254Y-62465130D01*
X61406068Y-62445848D01*
X61388536Y-62426071D01*
X61372578Y-62405800D01*
X61358116Y-62385037D01*
X61345070Y-62363783D01*
X61333361Y-62342039D01*
X61322909Y-62319808D01*
X61313634Y-62297090D01*
X61305457Y-62273888D01*
X61298299Y-62250202D01*
X61292080Y-62226035D01*
X61286721Y-62201387D01*
X61282142Y-62176260D01*
X61278264Y-62150656D01*
X61275007Y-62124575D01*
X61272292Y-62098021D01*
X61232604Y-62111250D01*
X61232795Y-62093260D01*
X61233337Y-62075335D01*
X61234192Y-62057458D01*
X61235317Y-62039613D01*
X61238214Y-62003950D01*
X61241699Y-61968210D01*
X61243844Y-61940175D01*
X61245458Y-61927036D01*
X61247406Y-61914649D01*
X61249716Y-61902944D01*
X61252414Y-61891851D01*
X61255529Y-61881297D01*
X61259089Y-61871213D01*
X61263121Y-61861526D01*
X61267652Y-61852166D01*
X61272710Y-61843062D01*
X61278324Y-61834142D01*
X61284520Y-61825336D01*
X61291327Y-61816572D01*
X61298771Y-61807780D01*
X61306881Y-61798888D01*
X61315684Y-61789825D01*
X61325208Y-61780521D01*
X61364896Y-61780521D01*
X61364896Y-61754063D01*
X61391355Y-61754063D01*
X61398176Y-61728845D01*
X61410555Y-61686331D01*
X61416920Y-61665931D01*
X61423548Y-61646094D01*
X61430548Y-61626814D01*
X61438028Y-61608085D01*
X61446100Y-61589902D01*
X61449986Y-61582083D01*
X61960209Y-61582083D01*
X61986667Y-61568854D01*
X61986667Y-61542396D01*
X62013125Y-61529167D01*
X61973438Y-61515938D01*
X61960209Y-61582083D01*
X61449986Y-61582083D01*
X61454871Y-61572258D01*
X61464450Y-61555146D01*
X61474948Y-61538562D01*
X61486473Y-61522499D01*
X61499135Y-61506952D01*
X61513043Y-61491913D01*
X61528306Y-61477377D01*
X61545033Y-61463339D01*
X61563334Y-61449792D01*
X61589792Y-61449792D01*
X61557728Y-61412683D01*
X61525366Y-61375858D01*
X61492623Y-61339374D01*
X61459412Y-61303289D01*
X61439255Y-61281688D01*
X61397791Y-61237402D01*
X61379069Y-61216868D01*
X61360813Y-61196083D01*
X61342990Y-61175032D01*
X61325567Y-61153697D01*
X61308511Y-61132059D01*
X61291790Y-61110103D01*
X61275370Y-61087810D01*
X61259218Y-61065164D01*
X61253550Y-61059983D01*
X61247726Y-61055130D01*
X61241751Y-61050591D01*
X61235633Y-61046356D01*
X61229379Y-61042410D01*
X61222995Y-61038743D01*
X61209866Y-61032194D01*
X61196299Y-61026610D01*
X61182350Y-61021894D01*
X61168072Y-61017946D01*
X61153520Y-61014670D01*
X61138748Y-61011966D01*
X61123810Y-61009736D01*
X61093655Y-61006308D01*
X61033744Y-61000824D01*
X60987316Y-60995504D01*
X60942269Y-60989247D01*
X60898328Y-60981710D01*
X60876685Y-60977352D01*
X60855215Y-60972545D01*
X60833882Y-60967245D01*
X60812653Y-60961409D01*
X60791492Y-60954994D01*
X60770365Y-60947956D01*
X60749238Y-60940253D01*
X60728075Y-60931841D01*
X60706843Y-60922677D01*
X60685506Y-60912719D01*
X60659981Y-60903560D01*
X60634238Y-60895583D01*
X60608294Y-60888708D01*
X60582168Y-60882853D01*
X60555877Y-60877938D01*
X60529442Y-60873881D01*
X60502879Y-60870602D01*
X60476206Y-60868021D01*
X60422607Y-60864624D01*
X60368790Y-60863045D01*
X60261088Y-60862748D01*
X60230383Y-60862796D01*
X60158198Y-60863914D01*
X60086482Y-60866642D01*
X60015122Y-60870959D01*
X59944007Y-60876845D01*
X59873023Y-60884281D01*
X59802059Y-60893245D01*
X59731001Y-60903719D01*
X59659739Y-60915682D01*
X59569735Y-60931387D01*
X59447211Y-60953497D01*
X59325126Y-60977027D01*
X59203426Y-61001927D01*
X59082059Y-61028149D01*
X58840111Y-61084364D01*
X58598857Y-61145282D01*
X58565579Y-61153858D01*
X58532935Y-61161869D01*
X58500659Y-61169086D01*
X58468483Y-61175278D01*
X58452348Y-61177918D01*
X58436138Y-61180216D01*
X58419819Y-61182143D01*
X58403357Y-61183671D01*
X58386720Y-61184770D01*
X58369873Y-61185411D01*
X58352783Y-61185567D01*
X58335417Y-61185208D01*
X58339362Y-61175401D01*
X58343616Y-61166302D01*
X58348181Y-61157847D01*
X58353059Y-61149974D01*
X58358249Y-61142617D01*
X58363754Y-61135715D01*
X58369573Y-61129204D01*
X58375709Y-61123020D01*
X58382161Y-61117099D01*
X58388932Y-61111380D01*
X58396021Y-61105797D01*
X58403431Y-61100288D01*
X58419214Y-61089238D01*
X58436290Y-61077722D01*
X58459160Y-61062328D01*
X58496433Y-61037666D01*
X58533855Y-61013229D01*
X58559673Y-60996331D01*
X58598848Y-60971155D01*
X58638170Y-60946580D01*
X58677714Y-60922621D01*
X58717554Y-60899291D01*
X58757766Y-60876607D01*
X58798424Y-60854582D01*
X58839603Y-60833231D01*
X58881379Y-60812570D01*
X58915972Y-60795430D01*
X58950269Y-60777773D01*
X58984378Y-60759749D01*
X59018405Y-60741508D01*
X59105919Y-60695678D01*
X59194195Y-60651601D01*
X59283194Y-60609169D01*
X59372879Y-60568275D01*
X59463211Y-60528811D01*
X59554152Y-60490668D01*
X59645664Y-60453739D01*
X59737709Y-60417917D01*
X59771130Y-60405017D01*
X59872866Y-60367098D01*
X59975140Y-60331111D01*
X60077936Y-60296943D01*
X60181238Y-60264481D01*
X60285032Y-60233609D01*
X60389302Y-60204216D01*
X60494032Y-60176186D01*
X60599207Y-60149406D01*
X60693542Y-60125745D01*
X60786392Y-60102815D01*
X60879370Y-60080412D01*
X60945107Y-60063375D01*
X61009306Y-60044854D01*
X61072245Y-60024712D01*
X61134201Y-60002811D01*
X61195449Y-59979012D01*
X61256266Y-59953177D01*
X61316928Y-59925168D01*
X61377712Y-59894848D01*
X61405794Y-59881051D01*
X61434246Y-59868130D01*
X61463044Y-59856088D01*
X61492164Y-59844929D01*
X61521586Y-59834658D01*
X61551285Y-59825276D01*
X61581238Y-59816789D01*
X61611424Y-59809200D01*
X61641818Y-59802513D01*
X61672399Y-59796731D01*
X61703142Y-59791858D01*
X61734027Y-59787899D01*
X61765028Y-59784855D01*
X61796124Y-59782733D01*
X61827292Y-59781534D01*
X61858509Y-59781263D01*
X61888766Y-59781341D01*
X61910941Y-59781646D01*
X61933006Y-59782230D01*
X61954989Y-59783118D01*
X61976920Y-59784331D01*
X61998829Y-59785894D01*
X62020744Y-59787830D01*
X62042695Y-59790162D01*
X62064711Y-59792913D01*
X62086681Y-59795068D01*
X62108525Y-59796440D01*
X62130256Y-59797083D01*
X62151891Y-59797053D01*
X62173442Y-59796403D01*
X62194924Y-59795188D01*
X62216353Y-59793462D01*
X62237742Y-59791279D01*
X62280460Y-59785761D01*
X62323194Y-59779069D01*
X62409173Y-59763900D01*
X62576791Y-59734703D01*
X62632367Y-59725894D01*
X62675555Y-59720234D01*
X62711180Y-59717190D01*
X62744067Y-59716229D01*
X62779043Y-59716818D01*
X62820931Y-59718425D01*
X62866373Y-59717758D01*
X62911685Y-59715407D01*
X62956776Y-59711322D01*
X63001554Y-59705456D01*
X63045931Y-59697761D01*
X63089814Y-59688189D01*
X63133113Y-59676691D01*
X63175737Y-59663220D01*
X63217596Y-59647727D01*
X63258599Y-59630165D01*
X63298656Y-59610486D01*
X63337675Y-59588641D01*
X63375566Y-59564583D01*
X63412238Y-59538263D01*
X63447600Y-59509633D01*
X63481563Y-59478646D01*
X63496587Y-59462649D01*
X63511328Y-59446450D01*
X63525820Y-59430065D01*
X63540098Y-59413509D01*
X63554197Y-59396798D01*
X63568152Y-59379947D01*
X63595768Y-59345889D01*
X63610038Y-59329036D01*
X63624693Y-59312512D01*
X63639747Y-59296373D01*
X63655216Y-59280677D01*
X63671113Y-59265483D01*
X63687452Y-59250848D01*
X63704250Y-59236829D01*
X63721520Y-59223484D01*
X63739277Y-59210871D01*
X63757536Y-59199047D01*
X63776310Y-59188071D01*
X63795616Y-59178000D01*
X63815467Y-59168891D01*
X63835878Y-59160803D01*
X63856863Y-59153792D01*
X63878438Y-59147917D01*
X63899233Y-59147178D01*
X63920019Y-59146861D01*
X63940800Y-59146899D01*
X63961578Y-59147226D01*
X64003134Y-59148485D01*
X64044707Y-59150113D01*
X64063671Y-59149879D01*
X64082213Y-59148458D01*
X64100386Y-59146037D01*
X64118247Y-59142803D01*
X64135850Y-59138940D01*
X64153249Y-59134635D01*
X64187662Y-59125445D01*
X64221924Y-59116720D01*
X64239138Y-59112998D01*
X64256479Y-59109950D01*
X64274004Y-59107764D01*
X64291767Y-59106624D01*
X64309824Y-59106717D01*
G37*
G36*
X63256667Y-61171979D02*
G01*
X63252095Y-61178704D01*
X63247625Y-61185007D01*
X63243224Y-61190928D01*
X63238858Y-61196506D01*
X63234495Y-61201782D01*
X63230102Y-61206796D01*
X63225646Y-61211589D01*
X63221094Y-61216200D01*
X63216414Y-61220669D01*
X63211572Y-61225036D01*
X63206536Y-61229342D01*
X63201273Y-61233627D01*
X63195750Y-61237930D01*
X63189934Y-61242293D01*
X63177292Y-61251354D01*
X63150834Y-61238125D01*
X63171504Y-61206706D01*
X63190521Y-61171979D01*
X63177292Y-61145521D01*
X63256667Y-61171979D01*
G37*
G36*
X63534479Y-59491875D02*
G01*
X63515772Y-59504123D01*
X63508899Y-59508502D01*
X63502647Y-59512339D01*
X63496239Y-59516099D01*
X63488901Y-59520246D01*
X63468334Y-59531563D01*
X63441875Y-59518334D01*
X63521250Y-59438959D01*
X63534479Y-59491875D01*
G37*
G36*
X63296354Y-61132292D02*
G01*
X63296354Y-61158750D01*
X63256667Y-61145521D01*
X63256667Y-61105834D01*
X63296354Y-61132292D01*
G37*
G36*
X63256667Y-61092604D02*
G01*
X63261524Y-61112706D01*
X63263178Y-61119928D01*
X63264522Y-61126297D01*
X63265710Y-61132589D01*
X63266899Y-61139578D01*
X63269896Y-61158750D01*
X63216979Y-61185208D01*
X63230208Y-61079375D01*
X63256667Y-61092604D01*
G37*
D11*
X92130310Y-49279012D02*
X92754426Y-48842002D01*
D12*
X57461904Y-34328409D02*
X57604761Y-34376028D01*
X57604761Y-34376028D02*
X57652380Y-34423647D01*
X57652380Y-34423647D02*
X57699999Y-34518885D01*
X57699999Y-34518885D02*
X57699999Y-34661742D01*
X57699999Y-34661742D02*
X57652380Y-34756980D01*
X57652380Y-34756980D02*
X57604761Y-34804600D01*
X57604761Y-34804600D02*
X57509523Y-34852219D01*
X57509523Y-34852219D02*
X57128571Y-34852219D01*
X57128571Y-34852219D02*
X57128571Y-33852219D01*
X57128571Y-33852219D02*
X57461904Y-33852219D01*
X57461904Y-33852219D02*
X57557142Y-33899838D01*
X57557142Y-33899838D02*
X57604761Y-33947457D01*
X57604761Y-33947457D02*
X57652380Y-34042695D01*
X57652380Y-34042695D02*
X57652380Y-34137933D01*
X57652380Y-34137933D02*
X57604761Y-34233171D01*
X57604761Y-34233171D02*
X57557142Y-34280790D01*
X57557142Y-34280790D02*
X57461904Y-34328409D01*
X57461904Y-34328409D02*
X57128571Y-34328409D01*
X58080952Y-34566504D02*
X58557142Y-34566504D01*
X57985714Y-34852219D02*
X58319047Y-33852219D01*
X58319047Y-33852219D02*
X58652380Y-34852219D01*
X58842857Y-33852219D02*
X59414285Y-33852219D01*
X59128571Y-34852219D02*
X59128571Y-33852219D01*
D13*
X52302761Y-44838095D02*
X52350380Y-44742857D01*
X52350380Y-44742857D02*
X52350380Y-44600000D01*
X52350380Y-44600000D02*
X52302761Y-44457143D01*
X52302761Y-44457143D02*
X52207523Y-44361905D01*
X52207523Y-44361905D02*
X52112285Y-44314286D01*
X52112285Y-44314286D02*
X51921809Y-44266667D01*
X51921809Y-44266667D02*
X51778952Y-44266667D01*
X51778952Y-44266667D02*
X51588476Y-44314286D01*
X51588476Y-44314286D02*
X51493238Y-44361905D01*
X51493238Y-44361905D02*
X51398000Y-44457143D01*
X51398000Y-44457143D02*
X51350380Y-44600000D01*
X51350380Y-44600000D02*
X51350380Y-44695238D01*
X51350380Y-44695238D02*
X51398000Y-44838095D01*
X51398000Y-44838095D02*
X51445619Y-44885714D01*
X51445619Y-44885714D02*
X51778952Y-44885714D01*
X51778952Y-44885714D02*
X51778952Y-44695238D01*
X51350380Y-45314286D02*
X52350380Y-45314286D01*
X52350380Y-45314286D02*
X51350380Y-45885714D01*
X51350380Y-45885714D02*
X52350380Y-45885714D01*
X51350380Y-46361905D02*
X52350380Y-46361905D01*
X52350380Y-46361905D02*
X52350380Y-46600000D01*
X52350380Y-46600000D02*
X52302761Y-46742857D01*
X52302761Y-46742857D02*
X52207523Y-46838095D01*
X52207523Y-46838095D02*
X52112285Y-46885714D01*
X52112285Y-46885714D02*
X51921809Y-46933333D01*
X51921809Y-46933333D02*
X51778952Y-46933333D01*
X51778952Y-46933333D02*
X51588476Y-46885714D01*
X51588476Y-46885714D02*
X51493238Y-46838095D01*
X51493238Y-46838095D02*
X51398000Y-46742857D01*
X51398000Y-46742857D02*
X51350380Y-46600000D01*
X51350380Y-46600000D02*
X51350380Y-46361905D01*
D14*
G36*
X73980823Y-40079693D02*
G01*
X73959571Y-40079422D01*
X73938314Y-40078487D01*
X73917797Y-40076687D01*
X73914389Y-40076273D01*
X73894414Y-40072769D01*
X73874920Y-40066465D01*
X73871891Y-40065038D01*
X73854740Y-40054369D01*
X73848443Y-40047941D01*
X73840818Y-40029845D01*
X73840628Y-40025959D01*
X73840628Y-39445150D01*
X73340418Y-39445150D01*
X73340418Y-39990300D01*
X73335550Y-40009298D01*
X73333579Y-40012282D01*
X73318558Y-40025562D01*
X73311109Y-40029379D01*
X73292302Y-40036095D01*
X73273065Y-40039934D01*
X73268122Y-40040614D01*
X73248371Y-40042561D01*
X73227610Y-40043629D01*
X73206642Y-40044020D01*
X73201688Y-40044033D01*
X73180200Y-40043763D01*
X73158772Y-40042828D01*
X73138176Y-40041028D01*
X73134766Y-40040614D01*
X73114785Y-40037110D01*
X73095336Y-40031264D01*
X73090802Y-40029379D01*
X73073247Y-40019265D01*
X73066378Y-40012282D01*
X73059165Y-39993421D01*
X73059050Y-39990300D01*
X73059050Y-39445150D01*
X72400083Y-39445150D01*
X72380586Y-39440860D01*
X72374193Y-39436845D01*
X72361905Y-39421313D01*
X72355631Y-39407048D01*
X72350161Y-39387805D01*
X72346289Y-39368122D01*
X72343907Y-39351849D01*
X72342018Y-39331069D01*
X72340858Y-39310003D01*
X72340244Y-39289567D01*
X72340003Y-39267261D01*
X72340000Y-39263922D01*
X72340186Y-39241872D01*
X72340747Y-39221460D01*
X72341847Y-39200134D01*
X72343667Y-39178697D01*
X72343907Y-39176483D01*
X72346941Y-39156189D01*
X72350940Y-39137063D01*
X72355631Y-39121284D01*
X72364180Y-39103576D01*
X72374193Y-39091486D01*
X72392111Y-39083389D01*
X72400083Y-39082693D01*
X74008178Y-39082693D01*
X74029691Y-39083775D01*
X74051750Y-39087772D01*
X74070536Y-39094715D01*
X74088000Y-39106255D01*
X74095129Y-39113468D01*
X74106883Y-39129954D01*
X74115279Y-39148150D01*
X74120316Y-39168056D01*
X74121995Y-39189672D01*
X74121995Y-40025959D01*
X74116779Y-40044957D01*
X74114668Y-40047941D01*
X74099790Y-40060723D01*
X74091221Y-40065038D01*
X74072170Y-40071755D01*
X74052375Y-40075593D01*
X74047257Y-40076273D01*
X74027065Y-40078220D01*
X74006304Y-40079289D01*
X73985662Y-40079679D01*
X73980823Y-40079693D01*
G37*
G36*
X72498269Y-41342917D02*
G01*
X72477600Y-41342703D01*
X72456318Y-41341952D01*
X72435118Y-41340482D01*
X72425484Y-41339497D01*
X72404877Y-41336452D01*
X72385652Y-41332067D01*
X72376636Y-41329239D01*
X72358908Y-41321008D01*
X72348304Y-41312142D01*
X72340397Y-41294027D01*
X72340000Y-41288206D01*
X72340000Y-40473412D01*
X72341648Y-40451797D01*
X72346594Y-40431891D01*
X72354837Y-40413695D01*
X72366378Y-40397208D01*
X72381918Y-40383744D01*
X72401671Y-40374127D01*
X72422411Y-40368868D01*
X72442756Y-40366704D01*
X72453817Y-40366434D01*
X74064354Y-40366434D01*
X74083936Y-40371800D01*
X74088778Y-40375226D01*
X74101105Y-40391217D01*
X74106852Y-40405024D01*
X74111925Y-40424032D01*
X74115462Y-40443767D01*
X74117599Y-40460223D01*
X74119724Y-40481359D01*
X74121029Y-40502417D01*
X74121721Y-40522596D01*
X74121991Y-40544412D01*
X74121995Y-40547662D01*
X74121785Y-40570235D01*
X74121154Y-40590939D01*
X74119917Y-40612310D01*
X74117869Y-40633433D01*
X74117599Y-40635589D01*
X74114870Y-40655625D01*
X74110840Y-40676141D01*
X74106852Y-40690300D01*
X74098726Y-40708790D01*
X74089267Y-40719609D01*
X74071498Y-40728310D01*
X74064842Y-40728890D01*
X72652630Y-40728890D01*
X72652630Y-41288206D01*
X72647860Y-41307490D01*
X72644815Y-41312142D01*
X72629219Y-41324631D01*
X72618925Y-41329239D01*
X72599404Y-41334899D01*
X72580079Y-41338345D01*
X72571053Y-41339497D01*
X72551352Y-41341300D01*
X72531255Y-41342352D01*
X72511509Y-41342833D01*
X72498269Y-41342917D01*
G37*
G36*
X72480683Y-42604187D02*
G01*
X72459431Y-42603916D01*
X72438175Y-42602981D01*
X72417657Y-42601181D01*
X72414249Y-42600767D01*
X72394429Y-42597425D01*
X72375567Y-42592165D01*
X72371263Y-42590509D01*
X72354356Y-42580625D01*
X72347327Y-42573412D01*
X72340257Y-42555130D01*
X72340000Y-42550453D01*
X72340000Y-41657501D01*
X72341679Y-41635886D01*
X72346716Y-41615980D01*
X72355112Y-41597784D01*
X72366866Y-41581298D01*
X72382406Y-41567834D01*
X72402159Y-41558217D01*
X72422899Y-41552957D01*
X72443244Y-41550794D01*
X72454305Y-41550523D01*
X74007690Y-41550523D01*
X74029219Y-41551605D01*
X74051342Y-41555602D01*
X74070239Y-41562544D01*
X74087885Y-41574085D01*
X74095129Y-41581298D01*
X74106883Y-41597784D01*
X74115279Y-41615980D01*
X74120316Y-41635886D01*
X74121995Y-41657501D01*
X74121995Y-42545080D01*
X74116759Y-42564581D01*
X74115157Y-42567062D01*
X74100026Y-42579592D01*
X74091221Y-42583670D01*
X74071681Y-42589654D01*
X74052209Y-42593257D01*
X74047257Y-42593928D01*
X74027390Y-42595875D01*
X74006324Y-42596944D01*
X73984918Y-42597335D01*
X73979846Y-42597348D01*
X73959302Y-42597077D01*
X73938561Y-42596142D01*
X73918280Y-42594343D01*
X73914877Y-42593928D01*
X73895057Y-42590586D01*
X73876195Y-42585327D01*
X73871891Y-42583670D01*
X73854309Y-42573432D01*
X73847955Y-42567062D01*
X73840806Y-42548837D01*
X73840628Y-42545080D01*
X73840628Y-41910049D01*
X73402944Y-41910049D01*
X73402944Y-42447383D01*
X73397785Y-42466409D01*
X73395129Y-42470342D01*
X73379603Y-42483321D01*
X73371193Y-42487439D01*
X73351276Y-42493740D01*
X73331580Y-42497256D01*
X73328206Y-42497697D01*
X73308014Y-42499644D01*
X73287253Y-42500712D01*
X73266611Y-42501103D01*
X73261772Y-42501116D01*
X73242172Y-42500902D01*
X73222311Y-42500151D01*
X73201185Y-42498498D01*
X73194361Y-42497697D01*
X73174622Y-42494354D01*
X73154975Y-42488691D01*
X73151863Y-42487439D01*
X73134492Y-42476990D01*
X73128415Y-42470342D01*
X73121744Y-42451292D01*
X73121577Y-42447383D01*
X73121577Y-41910049D01*
X72621367Y-41910049D01*
X72621367Y-42550453D01*
X72616208Y-42569479D01*
X72613551Y-42573412D01*
X72598224Y-42586392D01*
X72589616Y-42590509D01*
X72570809Y-42596493D01*
X72551572Y-42600096D01*
X72546629Y-42600767D01*
X72526935Y-42602714D01*
X72506327Y-42603783D01*
X72485578Y-42604173D01*
X72480683Y-42604187D01*
G37*
G36*
X72483126Y-44182972D02*
G01*
X72463284Y-44192840D01*
X72445219Y-44201071D01*
X72426748Y-44208475D01*
X72406922Y-44214724D01*
X72387230Y-44217151D01*
X72368024Y-44210525D01*
X72362958Y-44205931D01*
X72352744Y-44188319D01*
X72347192Y-44168627D01*
X72344192Y-44149027D01*
X72343907Y-44146336D01*
X72342385Y-44125893D01*
X72341377Y-44105766D01*
X72340644Y-44083235D01*
X72340244Y-44062622D01*
X72340034Y-44040339D01*
X72340000Y-44026169D01*
X72340085Y-44002950D01*
X72340343Y-43981655D01*
X72340861Y-43959242D01*
X72341612Y-43939447D01*
X72342442Y-43924564D01*
X72344322Y-43904917D01*
X72347250Y-43884263D01*
X72351235Y-43865945D01*
X72358684Y-43847383D01*
X72368332Y-43834682D01*
X72385392Y-43823552D01*
X72396175Y-43818562D01*
X73033161Y-43484926D01*
X72396175Y-43152268D01*
X72379191Y-43142462D01*
X72368332Y-43134194D01*
X72356616Y-43117822D01*
X72351235Y-43103419D01*
X72346956Y-43083531D01*
X72344091Y-43062295D01*
X72342442Y-43044312D01*
X72341373Y-43024010D01*
X72340689Y-43003790D01*
X72340238Y-42981280D01*
X72340038Y-42960163D01*
X72340000Y-42945150D01*
X72340095Y-42923509D01*
X72340381Y-42903466D01*
X72340976Y-42881524D01*
X72341847Y-42861884D01*
X72343209Y-42841878D01*
X72343907Y-42834263D01*
X72347192Y-42814291D01*
X72353410Y-42795337D01*
X72362958Y-42781507D01*
X72381521Y-42773325D01*
X72401638Y-42774770D01*
X72406922Y-42776134D01*
X72426748Y-42783041D01*
X72445219Y-42791040D01*
X72463284Y-42799842D01*
X72483126Y-42810328D01*
X73253956Y-43236287D01*
X73978869Y-42840614D01*
X73996500Y-42831838D01*
X74015334Y-42823033D01*
X74034568Y-42814858D01*
X74053287Y-42808070D01*
X74057027Y-42806908D01*
X74076879Y-42803748D01*
X74095705Y-42809458D01*
X74100502Y-42813747D01*
X74110555Y-42830882D01*
X74115764Y-42850097D01*
X74118576Y-42871877D01*
X74119908Y-42892367D01*
X74120790Y-42912608D01*
X74121431Y-42935323D01*
X74121782Y-42956141D01*
X74121965Y-42978676D01*
X74121995Y-42993021D01*
X74121892Y-43016257D01*
X74121583Y-43037603D01*
X74120962Y-43060120D01*
X74120060Y-43080065D01*
X74119064Y-43095115D01*
X74117381Y-43115272D01*
X74114786Y-43134678D01*
X74110665Y-43153809D01*
X74110272Y-43155199D01*
X74103066Y-43173883D01*
X74093175Y-43185973D01*
X74076545Y-43197303D01*
X74065819Y-43203070D01*
X73482079Y-43515213D01*
X74065819Y-43818562D01*
X74083476Y-43828596D01*
X74093175Y-43835659D01*
X74105607Y-43852038D01*
X74110272Y-43864480D01*
X74115080Y-43884809D01*
X74117809Y-43904718D01*
X74119064Y-43919190D01*
X74120481Y-43941099D01*
X74121263Y-43961078D01*
X74121763Y-43983628D01*
X74121970Y-44005003D01*
X74121995Y-44016399D01*
X74121912Y-44037207D01*
X74121591Y-44060288D01*
X74121030Y-44081308D01*
X74120072Y-44103227D01*
X74118576Y-44124843D01*
X74115725Y-44145403D01*
X74109722Y-44165181D01*
X74100013Y-44180042D01*
X74081817Y-44189445D01*
X74061818Y-44188632D01*
X74056538Y-44187369D01*
X74036569Y-44181215D01*
X74017778Y-44174025D01*
X73999282Y-44166081D01*
X73978869Y-44156594D01*
X73258353Y-43760921D01*
X72483126Y-44182972D01*
G37*
G36*
X73044884Y-44954780D02*
G01*
X73021312Y-44954410D01*
X73000052Y-44953301D01*
X72977595Y-44950994D01*
X72955606Y-44946957D01*
X72936029Y-44940568D01*
X72933998Y-44939637D01*
X72917512Y-44928455D01*
X72906429Y-44912188D01*
X72902735Y-44891765D01*
X72902735Y-44319748D01*
X72905836Y-44300238D01*
X72916409Y-44283073D01*
X72932533Y-44271376D01*
X72934487Y-44270411D01*
X72953476Y-44263786D01*
X72974801Y-44259542D01*
X72996577Y-44257058D01*
X73017190Y-44255801D01*
X73040044Y-44255283D01*
X73044884Y-44255268D01*
X73067601Y-44255638D01*
X73088123Y-44256747D01*
X73109853Y-44259054D01*
X73131211Y-44263091D01*
X73150353Y-44269480D01*
X73152351Y-44270411D01*
X73169095Y-44281736D01*
X73180351Y-44298491D01*
X73184103Y-44319748D01*
X73184103Y-44891765D01*
X73180870Y-44911852D01*
X73177264Y-44919609D01*
X73163243Y-44934113D01*
X73153817Y-44939637D01*
X73134888Y-44946720D01*
X73115372Y-44950676D01*
X73110341Y-44951360D01*
X73090265Y-44953307D01*
X73069810Y-44954376D01*
X73049605Y-44954766D01*
X73044884Y-44954780D01*
G37*
G36*
X72480683Y-46277599D02*
G01*
X72459431Y-46277329D01*
X72438175Y-46276394D01*
X72417657Y-46274594D01*
X72414249Y-46274180D01*
X72394429Y-46270837D01*
X72375567Y-46265578D01*
X72371263Y-46263922D01*
X72354356Y-46254037D01*
X72347327Y-46246825D01*
X72340257Y-46228543D01*
X72340000Y-46223866D01*
X72340000Y-45330914D01*
X72341679Y-45309298D01*
X72346716Y-45289393D01*
X72355112Y-45271196D01*
X72366866Y-45254710D01*
X72382406Y-45241246D01*
X72402159Y-45231629D01*
X72422899Y-45226370D01*
X72443244Y-45224206D01*
X72454305Y-45223935D01*
X74007690Y-45223935D01*
X74029219Y-45225017D01*
X74051342Y-45229014D01*
X74070239Y-45235957D01*
X74087885Y-45247497D01*
X74095129Y-45254710D01*
X74106883Y-45271196D01*
X74115279Y-45289393D01*
X74120316Y-45309298D01*
X74121995Y-45330914D01*
X74121995Y-46218492D01*
X74116759Y-46237994D01*
X74115157Y-46240474D01*
X74100026Y-46253004D01*
X74091221Y-46257083D01*
X74071681Y-46263067D01*
X74052209Y-46266670D01*
X74047257Y-46267341D01*
X74027390Y-46269288D01*
X74006324Y-46270356D01*
X73984918Y-46270747D01*
X73979846Y-46270760D01*
X73959302Y-46270490D01*
X73938561Y-46269555D01*
X73918280Y-46267755D01*
X73914877Y-46267341D01*
X73895057Y-46263998D01*
X73876195Y-46258739D01*
X73871891Y-46257083D01*
X73854309Y-46246845D01*
X73847955Y-46240474D01*
X73840806Y-46222249D01*
X73840628Y-46218492D01*
X73840628Y-45583461D01*
X73402944Y-45583461D01*
X73402944Y-46120795D01*
X73397785Y-46139821D01*
X73395129Y-46143754D01*
X73379603Y-46156734D01*
X73371193Y-46160851D01*
X73351276Y-46167152D01*
X73331580Y-46170668D01*
X73328206Y-46171109D01*
X73308014Y-46173056D01*
X73287253Y-46174125D01*
X73266611Y-46174515D01*
X73261772Y-46174529D01*
X73242172Y-46174315D01*
X73222311Y-46173564D01*
X73201185Y-46171911D01*
X73194361Y-46171109D01*
X73174622Y-46167767D01*
X73154975Y-46162103D01*
X73151863Y-46160851D01*
X73134492Y-46150402D01*
X73128415Y-46143754D01*
X73121744Y-46124705D01*
X73121577Y-46120795D01*
X73121577Y-45583461D01*
X72621367Y-45583461D01*
X72621367Y-46223866D01*
X72616208Y-46242892D01*
X72613551Y-46246825D01*
X72598224Y-46259804D01*
X72589616Y-46263922D01*
X72570809Y-46269905D01*
X72551572Y-46273509D01*
X72546629Y-46274180D01*
X72526935Y-46276127D01*
X72506327Y-46277195D01*
X72485578Y-46277586D01*
X72480683Y-46277599D01*
G37*
G36*
X74029691Y-47223901D02*
G01*
X74051750Y-47227898D01*
X74070536Y-47234840D01*
X74088000Y-47246381D01*
X74095129Y-47253594D01*
X74106883Y-47270080D01*
X74115279Y-47288276D01*
X74120316Y-47308182D01*
X74121995Y-47329797D01*
X74121995Y-47789951D01*
X74121924Y-47811313D01*
X74121709Y-47831434D01*
X74121263Y-47853942D01*
X74120610Y-47874665D01*
X74119588Y-47896584D01*
X74119064Y-47905233D01*
X74117721Y-47927429D01*
X74116133Y-47948587D01*
X74114302Y-47968706D01*
X74112226Y-47987788D01*
X74109189Y-48007744D01*
X74105757Y-48027315D01*
X74101930Y-48046499D01*
X74096213Y-48071476D01*
X74089794Y-48095767D01*
X74082673Y-48119371D01*
X74074850Y-48142288D01*
X74066324Y-48164518D01*
X74059469Y-48180739D01*
X74049822Y-48201821D01*
X74039441Y-48222077D01*
X74028328Y-48241510D01*
X74016482Y-48260118D01*
X74003904Y-48277902D01*
X73990593Y-48294862D01*
X73976549Y-48310997D01*
X73961772Y-48326308D01*
X73946400Y-48340879D01*
X73930326Y-48354549D01*
X73913549Y-48367318D01*
X73896071Y-48379187D01*
X73877890Y-48390155D01*
X73859007Y-48400222D01*
X73839422Y-48409389D01*
X73819134Y-48417655D01*
X73798122Y-48425097D01*
X73776361Y-48431546D01*
X73753853Y-48437004D01*
X73730596Y-48441469D01*
X73706592Y-48444941D01*
X73681839Y-48447422D01*
X73656339Y-48448910D01*
X73636722Y-48449376D01*
X73630090Y-48449407D01*
X73607864Y-48449048D01*
X73586127Y-48447972D01*
X73564877Y-48446178D01*
X73544117Y-48443667D01*
X73523845Y-48440438D01*
X73504061Y-48436492D01*
X73484766Y-48431829D01*
X73465959Y-48426448D01*
X73443150Y-48418901D01*
X73421127Y-48410305D01*
X73399892Y-48400659D01*
X73379444Y-48389964D01*
X73359783Y-48378219D01*
X73340909Y-48365425D01*
X73333579Y-48360014D01*
X73315784Y-48345774D01*
X73298727Y-48330533D01*
X73282410Y-48314290D01*
X73266832Y-48297045D01*
X73251994Y-48278798D01*
X73237895Y-48259550D01*
X73232463Y-48251570D01*
X73219435Y-48230979D01*
X73209597Y-48213870D01*
X73200277Y-48196197D01*
X73191477Y-48177959D01*
X73183195Y-48159156D01*
X73175433Y-48139788D01*
X73168190Y-48119856D01*
X73163098Y-48104536D01*
X73153053Y-48124228D01*
X73141971Y-48143248D01*
X73129850Y-48161597D01*
X73116692Y-48179274D01*
X73104377Y-48194451D01*
X73090939Y-48209207D01*
X73076380Y-48223542D01*
X73060699Y-48237457D01*
X73051235Y-48245219D01*
X73033837Y-48258710D01*
X73015411Y-48271827D01*
X72998799Y-48282772D01*
X72981431Y-48293442D01*
X72963307Y-48303838D01*
X72944359Y-48314062D01*
X72924518Y-48324217D01*
X72903785Y-48334303D01*
X72885824Y-48342656D01*
X72867243Y-48350961D01*
X72851933Y-48357571D01*
X72506573Y-48507536D01*
X72488301Y-48514749D01*
X72469414Y-48521949D01*
X72448978Y-48529282D01*
X72431346Y-48534892D01*
X72411511Y-48539800D01*
X72394221Y-48541730D01*
X72374255Y-48538433D01*
X72368820Y-48535868D01*
X72356290Y-48520321D01*
X72352212Y-48509979D01*
X72347300Y-48490084D01*
X72344400Y-48470392D01*
X72342442Y-48449407D01*
X72341373Y-48427791D01*
X72340689Y-48405872D01*
X72340288Y-48384852D01*
X72340059Y-48361771D01*
X72340000Y-48340963D01*
X72340085Y-48320172D01*
X72340403Y-48297999D01*
X72340954Y-48278070D01*
X72341869Y-48258042D01*
X72342442Y-48249127D01*
X72344703Y-48229140D01*
X72348550Y-48208806D01*
X72352700Y-48194905D01*
X72361588Y-48176935D01*
X72371263Y-48166573D01*
X72388543Y-48156936D01*
X72399106Y-48152896D01*
X72787452Y-47993649D01*
X72807691Y-47984667D01*
X72827190Y-47975732D01*
X72845949Y-47966845D01*
X72863969Y-47958005D01*
X72884617Y-47947461D01*
X72904200Y-47936985D01*
X72922834Y-47926504D01*
X72940264Y-47915576D01*
X72956493Y-47904201D01*
X72973907Y-47890367D01*
X72989685Y-47875924D01*
X73003851Y-47860687D01*
X73016426Y-47844468D01*
X73027412Y-47827268D01*
X73036809Y-47809086D01*
X73041465Y-47798255D01*
X73048317Y-47778366D01*
X73053486Y-47757169D01*
X73056972Y-47734662D01*
X73058621Y-47714329D01*
X73059050Y-47696650D01*
X73059050Y-47583810D01*
X73340418Y-47583810D01*
X73340418Y-47767969D01*
X73340859Y-47791470D01*
X73342183Y-47814041D01*
X73344390Y-47835682D01*
X73347478Y-47856393D01*
X73351450Y-47876173D01*
X73357380Y-47898681D01*
X73358492Y-47902303D01*
X73365968Y-47923397D01*
X73374475Y-47943083D01*
X73384012Y-47961362D01*
X73394579Y-47978232D01*
X73408210Y-47996133D01*
X73410272Y-47998534D01*
X73425626Y-48014483D01*
X73442195Y-48028561D01*
X73459980Y-48040769D01*
X73478980Y-48051107D01*
X73490383Y-48056176D01*
X73511200Y-48063789D01*
X73533046Y-48069533D01*
X73552589Y-48072967D01*
X73572888Y-48075028D01*
X73593942Y-48075715D01*
X73615367Y-48075089D01*
X73635922Y-48073211D01*
X73655606Y-48070082D01*
X73678988Y-48064410D01*
X73701010Y-48056782D01*
X73721673Y-48047199D01*
X73740976Y-48035659D01*
X73758882Y-48022042D01*
X73775046Y-48005921D01*
X73789470Y-47987295D01*
X73799755Y-47970591D01*
X73808925Y-47952284D01*
X73816981Y-47932374D01*
X73823923Y-47910862D01*
X73825484Y-47905233D01*
X73829840Y-47885503D01*
X73833198Y-47865964D01*
X73835984Y-47844898D01*
X73836231Y-47842707D01*
X73838356Y-47820837D01*
X73839528Y-47800942D01*
X73840280Y-47778522D01*
X73840589Y-47757296D01*
X73840628Y-47745987D01*
X73840628Y-47583810D01*
X73340418Y-47583810D01*
X73059050Y-47583810D01*
X72396664Y-47583810D01*
X72377796Y-47578589D01*
X72372240Y-47574529D01*
X72360333Y-47558958D01*
X72354654Y-47545219D01*
X72349472Y-47524650D01*
X72345924Y-47504814D01*
X72343907Y-47490509D01*
X72342018Y-47469729D01*
X72340858Y-47448663D01*
X72340244Y-47428227D01*
X72340003Y-47405921D01*
X72340000Y-47402582D01*
X72340186Y-47380533D01*
X72340747Y-47360120D01*
X72341847Y-47338794D01*
X72343667Y-47317358D01*
X72343907Y-47315143D01*
X72346894Y-47294850D01*
X72351107Y-47274150D01*
X72355143Y-47259944D01*
X72363512Y-47241592D01*
X72372728Y-47231123D01*
X72390955Y-47223338D01*
X72397641Y-47222819D01*
X74008178Y-47222819D01*
X74029691Y-47223901D01*
G37*
G36*
X72480683Y-49851360D02*
G01*
X72459431Y-49851090D01*
X72438175Y-49850155D01*
X72417657Y-49848355D01*
X72414249Y-49847941D01*
X72394429Y-49844598D01*
X72375567Y-49839339D01*
X72371263Y-49837683D01*
X72354356Y-49827799D01*
X72347327Y-49820586D01*
X72340257Y-49802304D01*
X72340000Y-49797627D01*
X72340000Y-48904675D01*
X72341679Y-48883060D01*
X72346716Y-48863154D01*
X72355112Y-48844958D01*
X72366866Y-48828471D01*
X72382406Y-48815008D01*
X72402159Y-48805390D01*
X72422899Y-48800131D01*
X72443244Y-48797967D01*
X72454305Y-48797697D01*
X74007690Y-48797697D01*
X74029219Y-48798779D01*
X74051342Y-48802776D01*
X74070239Y-48809718D01*
X74087885Y-48821259D01*
X74095129Y-48828471D01*
X74106883Y-48844958D01*
X74115279Y-48863154D01*
X74120316Y-48883060D01*
X74121995Y-48904675D01*
X74121995Y-49792254D01*
X74116759Y-49811755D01*
X74115157Y-49814236D01*
X74100026Y-49826765D01*
X74091221Y-49830844D01*
X74071681Y-49836828D01*
X74052209Y-49840431D01*
X74047257Y-49841102D01*
X74027390Y-49843049D01*
X74006324Y-49844118D01*
X73984918Y-49844508D01*
X73979846Y-49844522D01*
X73959302Y-49844251D01*
X73938561Y-49843316D01*
X73918280Y-49841516D01*
X73914877Y-49841102D01*
X73895057Y-49837760D01*
X73876195Y-49832500D01*
X73871891Y-49830844D01*
X73854309Y-49820606D01*
X73847955Y-49814236D01*
X73840806Y-49796010D01*
X73840628Y-49792254D01*
X73840628Y-49157222D01*
X73402944Y-49157222D01*
X73402944Y-49694557D01*
X73397785Y-49713583D01*
X73395129Y-49717515D01*
X73379603Y-49730495D01*
X73371193Y-49734612D01*
X73351276Y-49740914D01*
X73331580Y-49744430D01*
X73328206Y-49744871D01*
X73308014Y-49746817D01*
X73287253Y-49747886D01*
X73266611Y-49748277D01*
X73261772Y-49748290D01*
X73242172Y-49748076D01*
X73222311Y-49747325D01*
X73201185Y-49745672D01*
X73194361Y-49744871D01*
X73174622Y-49741528D01*
X73154975Y-49735865D01*
X73151863Y-49734612D01*
X73134492Y-49724164D01*
X73128415Y-49717515D01*
X73121744Y-49698466D01*
X73121577Y-49694557D01*
X73121577Y-49157222D01*
X72621367Y-49157222D01*
X72621367Y-49797627D01*
X72616208Y-49816653D01*
X72613551Y-49820586D01*
X72598224Y-49833566D01*
X72589616Y-49837683D01*
X72570809Y-49843667D01*
X72551572Y-49847270D01*
X72546629Y-49847941D01*
X72526935Y-49849888D01*
X72506327Y-49850956D01*
X72485578Y-49851347D01*
X72480683Y-49851360D01*
G37*
G36*
X72483126Y-51430146D02*
G01*
X72463284Y-51440014D01*
X72445219Y-51448245D01*
X72426748Y-51455649D01*
X72406922Y-51461898D01*
X72387230Y-51464325D01*
X72368024Y-51457699D01*
X72362958Y-51453105D01*
X72352744Y-51435493D01*
X72347192Y-51415801D01*
X72344192Y-51396200D01*
X72343907Y-51393510D01*
X72342385Y-51373067D01*
X72341377Y-51352940D01*
X72340644Y-51330408D01*
X72340244Y-51309796D01*
X72340034Y-51287513D01*
X72340000Y-51273342D01*
X72340085Y-51250124D01*
X72340343Y-51228829D01*
X72340861Y-51206416D01*
X72341612Y-51186621D01*
X72342442Y-51171737D01*
X72344322Y-51152091D01*
X72347250Y-51131437D01*
X72351235Y-51113119D01*
X72358684Y-51094557D01*
X72368332Y-51081856D01*
X72385392Y-51070726D01*
X72396175Y-51065736D01*
X73033161Y-50732100D01*
X72396175Y-50399441D01*
X72379191Y-50389635D01*
X72368332Y-50381367D01*
X72356616Y-50364996D01*
X72351235Y-50350593D01*
X72346956Y-50330705D01*
X72344091Y-50309468D01*
X72342442Y-50291486D01*
X72341373Y-50271183D01*
X72340689Y-50250964D01*
X72340238Y-50228454D01*
X72340038Y-50207337D01*
X72340000Y-50192323D01*
X72340095Y-50170683D01*
X72340381Y-50150640D01*
X72340976Y-50128698D01*
X72341847Y-50109058D01*
X72343209Y-50089052D01*
X72343907Y-50081437D01*
X72347192Y-50061465D01*
X72353410Y-50042511D01*
X72362958Y-50028681D01*
X72381521Y-50020499D01*
X72401638Y-50021944D01*
X72406922Y-50023307D01*
X72426748Y-50030215D01*
X72445219Y-50038214D01*
X72463284Y-50047016D01*
X72483126Y-50057501D01*
X73253956Y-50483461D01*
X73978869Y-50087788D01*
X73996500Y-50079012D01*
X74015334Y-50070206D01*
X74034568Y-50062032D01*
X74053287Y-50055244D01*
X74057027Y-50054082D01*
X74076879Y-50050922D01*
X74095705Y-50056632D01*
X74100502Y-50060921D01*
X74110555Y-50078056D01*
X74115764Y-50097271D01*
X74118576Y-50119051D01*
X74119908Y-50139540D01*
X74120790Y-50159782D01*
X74121431Y-50182497D01*
X74121782Y-50203314D01*
X74121965Y-50225850D01*
X74121995Y-50240195D01*
X74121892Y-50263431D01*
X74121583Y-50284777D01*
X74120962Y-50307294D01*
X74120060Y-50327239D01*
X74119064Y-50342289D01*
X74117381Y-50362446D01*
X74114786Y-50381852D01*
X74110665Y-50400983D01*
X74110272Y-50402372D01*
X74103066Y-50421057D01*
X74093175Y-50433147D01*
X74076545Y-50444477D01*
X74065819Y-50450244D01*
X73482079Y-50762386D01*
X74065819Y-51065736D01*
X74083476Y-51075769D01*
X74093175Y-51082833D01*
X74105607Y-51099212D01*
X74110272Y-51111654D01*
X74115080Y-51131983D01*
X74117809Y-51151892D01*
X74119064Y-51166364D01*
X74120481Y-51188273D01*
X74121263Y-51208252D01*
X74121763Y-51230802D01*
X74121970Y-51252177D01*
X74121995Y-51263573D01*
X74121912Y-51284381D01*
X74121591Y-51307462D01*
X74121030Y-51328482D01*
X74120072Y-51350401D01*
X74118576Y-51372016D01*
X74115725Y-51392577D01*
X74109722Y-51412355D01*
X74100013Y-51427215D01*
X74081817Y-51436619D01*
X74061818Y-51435806D01*
X74056538Y-51434543D01*
X74036569Y-51428389D01*
X74017778Y-51421199D01*
X73999282Y-51413255D01*
X73978869Y-51403768D01*
X73258353Y-51008095D01*
X72483126Y-51430146D01*
G37*
D15*
G36*
X71370447Y-32314382D02*
G01*
X71370244Y-32330321D01*
X71369542Y-32346263D01*
X71368193Y-32361651D01*
X71367882Y-32364207D01*
X71365254Y-32379189D01*
X71360526Y-32393809D01*
X71359456Y-32396081D01*
X71351454Y-32408944D01*
X71346633Y-32413667D01*
X71333061Y-32419385D01*
X71330147Y-32419528D01*
X70894539Y-32419528D01*
X70894539Y-32794685D01*
X71303402Y-32794685D01*
X71317650Y-32798337D01*
X71319888Y-32799815D01*
X71329849Y-32811080D01*
X71332711Y-32816667D01*
X71337749Y-32830772D01*
X71340628Y-32845200D01*
X71341137Y-32848907D01*
X71342598Y-32863721D01*
X71343399Y-32879291D01*
X71343692Y-32895018D01*
X71343702Y-32898733D01*
X71343499Y-32914849D01*
X71342798Y-32930920D01*
X71341448Y-32946367D01*
X71341137Y-32948925D01*
X71338510Y-32963911D01*
X71334125Y-32978497D01*
X71332711Y-32981898D01*
X71325126Y-32995064D01*
X71319888Y-33000216D01*
X71305743Y-33005625D01*
X71303402Y-33005711D01*
X70894539Y-33005711D01*
X70894539Y-33499937D01*
X70891322Y-33514559D01*
X70888311Y-33519354D01*
X70876662Y-33528570D01*
X70865963Y-33533276D01*
X70851531Y-33537378D01*
X70836768Y-33540283D01*
X70824564Y-33542069D01*
X70808979Y-33543485D01*
X70793180Y-33544356D01*
X70777852Y-33544816D01*
X70761123Y-33544997D01*
X70758618Y-33545000D01*
X70742081Y-33544859D01*
X70726772Y-33544439D01*
X70710778Y-33543614D01*
X70694700Y-33542249D01*
X70693039Y-33542069D01*
X70677819Y-33539793D01*
X70663474Y-33536794D01*
X70651640Y-33533276D01*
X70638359Y-33526864D01*
X70629292Y-33519354D01*
X70623219Y-33505916D01*
X70622697Y-33499937D01*
X70622697Y-32293866D01*
X70623509Y-32277731D01*
X70626506Y-32261187D01*
X70631713Y-32247097D01*
X70640368Y-32233999D01*
X70645778Y-32228653D01*
X70658143Y-32219837D01*
X70671790Y-32213540D01*
X70686719Y-32209762D01*
X70702931Y-32208503D01*
X71330147Y-32208503D01*
X71344395Y-32212415D01*
X71346633Y-32213998D01*
X71356220Y-32225156D01*
X71359456Y-32231584D01*
X71364493Y-32245872D01*
X71367372Y-32260718D01*
X71367882Y-32264556D01*
X71369342Y-32279700D01*
X71370144Y-32295271D01*
X71370437Y-32310753D01*
X71370447Y-32314382D01*
G37*
G36*
X72160328Y-32675983D02*
G01*
X72160223Y-32690935D01*
X72159845Y-32706563D01*
X72159091Y-32722283D01*
X72158130Y-32734602D01*
X72156395Y-32750298D01*
X72153460Y-32765225D01*
X72151902Y-32770505D01*
X72145508Y-32784345D01*
X72141277Y-32788824D01*
X72126932Y-32793873D01*
X72124424Y-32793953D01*
X72109522Y-32791534D01*
X72105740Y-32790289D01*
X72091772Y-32785566D01*
X72082292Y-32782595D01*
X72067944Y-32778417D01*
X72054082Y-32774902D01*
X72038932Y-32772272D01*
X72023485Y-32771270D01*
X72020010Y-32771238D01*
X72005150Y-32772320D01*
X71990289Y-32775567D01*
X71976779Y-32780397D01*
X71963127Y-32787159D01*
X71950594Y-32795019D01*
X71937830Y-32804560D01*
X71932083Y-32809340D01*
X71920405Y-32819873D01*
X71909962Y-32830442D01*
X71899308Y-32842273D01*
X71888443Y-32855366D01*
X71883723Y-32861364D01*
X71874114Y-32873995D01*
X71864248Y-32887708D01*
X71855830Y-32899962D01*
X71847232Y-32912967D01*
X71838456Y-32926723D01*
X71829501Y-32941231D01*
X71829501Y-33504333D01*
X71825700Y-33518796D01*
X71823273Y-33522285D01*
X71811312Y-33531278D01*
X71802024Y-33535108D01*
X71787237Y-33538854D01*
X71771438Y-33541396D01*
X71762456Y-33542435D01*
X71747548Y-33543675D01*
X71732447Y-33544436D01*
X71715605Y-33544877D01*
X71699442Y-33545000D01*
X71683403Y-33544877D01*
X71668627Y-33544509D01*
X71653286Y-33543787D01*
X71637997Y-33542593D01*
X71636427Y-33542435D01*
X71620677Y-33540412D01*
X71606062Y-33537613D01*
X71596860Y-33535108D01*
X71583039Y-33528526D01*
X71575977Y-33522285D01*
X71570047Y-33508698D01*
X71569749Y-33504333D01*
X71569749Y-32600879D01*
X71572879Y-32586416D01*
X71574878Y-32582927D01*
X71586415Y-32573381D01*
X71593196Y-32570471D01*
X71607595Y-32566226D01*
X71622809Y-32563458D01*
X71628001Y-32562777D01*
X71643865Y-32561317D01*
X71658712Y-32560573D01*
X71675241Y-32560235D01*
X71681123Y-32560212D01*
X71696900Y-32560373D01*
X71712952Y-32560936D01*
X71728680Y-32562038D01*
X71735712Y-32562777D01*
X71750532Y-32565061D01*
X71765146Y-32568930D01*
X71769051Y-32570471D01*
X71781921Y-32578307D01*
X71786270Y-32583293D01*
X71791219Y-32597135D01*
X71791399Y-32600879D01*
X71791399Y-32713353D01*
X71800312Y-32700541D01*
X71809099Y-32688302D01*
X71819906Y-32673809D01*
X71830516Y-32660210D01*
X71840929Y-32647505D01*
X71851145Y-32635695D01*
X71859177Y-32626891D01*
X71871138Y-32614491D01*
X71882841Y-32603123D01*
X71894287Y-32592784D01*
X71907316Y-32582025D01*
X71919993Y-32572669D01*
X71932655Y-32564449D01*
X71947127Y-32556515D01*
X71961598Y-32550138D01*
X71976070Y-32545318D01*
X71977879Y-32544825D01*
X71992350Y-32541299D01*
X72006821Y-32538780D01*
X72023102Y-32537151D01*
X72035764Y-32536765D01*
X72051297Y-32537229D01*
X72064341Y-32538230D01*
X72079271Y-32540087D01*
X72094523Y-32542910D01*
X72096581Y-32543360D01*
X72111071Y-32546773D01*
X72125157Y-32551420D01*
X72138508Y-32557505D01*
X72143109Y-32560945D01*
X72151535Y-32571570D01*
X72155582Y-32586106D01*
X72155932Y-32588056D01*
X72158057Y-32602958D01*
X72159159Y-32617902D01*
X72159229Y-32619197D01*
X72159855Y-32635329D01*
X72160173Y-32651168D01*
X72160311Y-32667242D01*
X72160328Y-32675983D01*
G37*
G36*
X72754488Y-32536895D02*
G01*
X72769534Y-32537286D01*
X72784324Y-32537937D01*
X72806024Y-32539402D01*
X72827145Y-32541453D01*
X72847687Y-32544091D01*
X72867649Y-32547314D01*
X72887031Y-32551123D01*
X72905833Y-32555518D01*
X72924057Y-32560500D01*
X72941700Y-32566067D01*
X72953140Y-32570104D01*
X72969899Y-32576632D01*
X72986104Y-32583714D01*
X73001756Y-32591350D01*
X73016853Y-32599539D01*
X73031397Y-32608283D01*
X73045387Y-32617580D01*
X73058823Y-32627431D01*
X73071705Y-32637836D01*
X73084033Y-32648794D01*
X73095808Y-32660307D01*
X73103350Y-32668290D01*
X73114207Y-32680644D01*
X73124524Y-32693526D01*
X73134300Y-32706936D01*
X73143535Y-32720875D01*
X73152229Y-32735341D01*
X73160382Y-32750335D01*
X73167994Y-32765858D01*
X73175065Y-32781909D01*
X73181596Y-32798487D01*
X73187585Y-32815594D01*
X73191277Y-32827292D01*
X73196449Y-32845191D01*
X73201113Y-32863579D01*
X73205268Y-32882457D01*
X73208914Y-32901824D01*
X73212051Y-32921681D01*
X73214680Y-32942027D01*
X73216800Y-32962862D01*
X73218411Y-32984187D01*
X73219513Y-33006002D01*
X73219965Y-33020817D01*
X73220192Y-33035849D01*
X73220220Y-33043447D01*
X73219946Y-33065180D01*
X73219125Y-33086552D01*
X73217756Y-33107563D01*
X73215841Y-33128214D01*
X73213377Y-33148505D01*
X73210367Y-33168434D01*
X73206809Y-33188003D01*
X73202703Y-33207212D01*
X73198050Y-33226059D01*
X73192850Y-33244546D01*
X73189079Y-33256671D01*
X73183025Y-33274505D01*
X73176405Y-33291876D01*
X73169218Y-33308783D01*
X73161464Y-33325227D01*
X73153144Y-33341207D01*
X73144256Y-33356723D01*
X73134803Y-33371775D01*
X73124782Y-33386364D01*
X73114195Y-33400489D01*
X73103040Y-33414150D01*
X73095290Y-33423000D01*
X73083260Y-33435775D01*
X73070663Y-33447996D01*
X73057500Y-33459663D01*
X73043770Y-33470776D01*
X73029473Y-33481336D01*
X73014609Y-33491341D01*
X72999179Y-33500793D01*
X72983182Y-33509691D01*
X72966618Y-33518035D01*
X72949488Y-33525825D01*
X72937753Y-33530711D01*
X72919747Y-33537455D01*
X72901174Y-33543535D01*
X72882034Y-33548953D01*
X72862328Y-33553706D01*
X72842055Y-33557797D01*
X72821215Y-33561224D01*
X72799808Y-33563988D01*
X72785222Y-33565462D01*
X72770385Y-33566641D01*
X72755295Y-33567526D01*
X72739953Y-33568115D01*
X72724360Y-33568410D01*
X72716469Y-33568447D01*
X72701253Y-33568315D01*
X72686290Y-33567920D01*
X72671578Y-33567262D01*
X72649982Y-33565781D01*
X72628954Y-33563707D01*
X72608492Y-33561041D01*
X72588596Y-33557782D01*
X72569268Y-33553931D01*
X72550506Y-33549487D01*
X72532311Y-33544451D01*
X72514682Y-33538823D01*
X72503245Y-33534741D01*
X72486545Y-33528086D01*
X72470379Y-33520895D01*
X72454749Y-33513171D01*
X72439652Y-33504911D01*
X72425090Y-33496117D01*
X72411063Y-33486789D01*
X72397570Y-33476926D01*
X72384612Y-33466529D01*
X72372188Y-33455597D01*
X72360298Y-33444131D01*
X72352669Y-33436189D01*
X72341743Y-33423835D01*
X72331357Y-33410953D01*
X72321512Y-33397543D01*
X72312209Y-33383605D01*
X72303446Y-33369138D01*
X72295224Y-33354144D01*
X72287544Y-33338621D01*
X72280404Y-33322571D01*
X72273805Y-33305992D01*
X72267747Y-33288885D01*
X72264009Y-33277187D01*
X72258902Y-33259233D01*
X72254298Y-33240814D01*
X72250195Y-33221932D01*
X72246595Y-33202586D01*
X72243498Y-33182777D01*
X72240902Y-33162504D01*
X72238809Y-33141767D01*
X72237219Y-33120566D01*
X72236130Y-33098902D01*
X72235684Y-33084202D01*
X72235461Y-33069296D01*
X72235433Y-33061765D01*
X72235564Y-33051507D01*
X72502146Y-33051507D01*
X72502323Y-33067925D01*
X72502856Y-33084022D01*
X72503743Y-33099798D01*
X72504985Y-33115254D01*
X72506582Y-33130390D01*
X72508534Y-33145204D01*
X72510841Y-33159699D01*
X72513503Y-33173872D01*
X72517392Y-33190926D01*
X72521961Y-33207282D01*
X72527210Y-33222940D01*
X72533138Y-33237900D01*
X72539746Y-33252163D01*
X72547034Y-33265728D01*
X72550140Y-33270959D01*
X72558478Y-33283335D01*
X72567692Y-33294816D01*
X72579907Y-33307412D01*
X72593383Y-33318721D01*
X72605578Y-33327161D01*
X72618650Y-33334706D01*
X72632660Y-33341250D01*
X72647673Y-33346685D01*
X72663687Y-33351010D01*
X72680703Y-33354227D01*
X72698720Y-33356334D01*
X72713856Y-33357221D01*
X72725628Y-33357421D01*
X72743676Y-33356920D01*
X72760955Y-33355417D01*
X72777465Y-33352913D01*
X72793205Y-33349407D01*
X72808176Y-33344899D01*
X72822378Y-33339389D01*
X72827844Y-33336905D01*
X72840978Y-33329932D01*
X72853360Y-33322064D01*
X72867228Y-33311442D01*
X72880013Y-33299533D01*
X72889842Y-33288624D01*
X72898918Y-33276821D01*
X72907262Y-33264168D01*
X72914890Y-33250710D01*
X72921802Y-33236447D01*
X72927998Y-33221380D01*
X72933480Y-33205507D01*
X72938245Y-33188829D01*
X72939951Y-33181933D01*
X72943856Y-33164040D01*
X72946504Y-33149185D01*
X72948728Y-33133849D01*
X72950528Y-33118033D01*
X72951905Y-33101735D01*
X72952858Y-33084957D01*
X72953387Y-33067698D01*
X72953507Y-33054438D01*
X72953335Y-33038026D01*
X72952820Y-33021946D01*
X72951961Y-33006198D01*
X72950759Y-32990782D01*
X72949213Y-32975698D01*
X72947324Y-32960946D01*
X72944480Y-32942973D01*
X72942516Y-32932438D01*
X72938820Y-32915288D01*
X72934373Y-32898872D01*
X72929174Y-32883189D01*
X72923224Y-32868239D01*
X72916523Y-32854023D01*
X72909071Y-32840540D01*
X72905879Y-32835352D01*
X72897445Y-32822862D01*
X72888169Y-32811266D01*
X72878053Y-32800565D01*
X72867096Y-32790759D01*
X72855298Y-32781846D01*
X72842660Y-32773828D01*
X72837369Y-32770872D01*
X72823543Y-32764222D01*
X72808625Y-32758700D01*
X72792617Y-32754305D01*
X72775517Y-32751037D01*
X72757325Y-32748895D01*
X72741987Y-32747994D01*
X72730024Y-32747791D01*
X72712293Y-32748301D01*
X72695277Y-32749830D01*
X72678977Y-32752379D01*
X72663392Y-32755948D01*
X72648523Y-32760537D01*
X72634369Y-32766145D01*
X72628908Y-32768674D01*
X72615774Y-32775559D01*
X72601005Y-32785073D01*
X72587318Y-32795952D01*
X72574712Y-32808197D01*
X72565035Y-32819444D01*
X72557833Y-32829124D01*
X72549472Y-32841882D01*
X72541790Y-32855428D01*
X72534789Y-32869760D01*
X72528467Y-32884880D01*
X72522825Y-32900787D01*
X72517862Y-32917480D01*
X72516068Y-32924378D01*
X72512057Y-32942165D01*
X72509338Y-32956949D01*
X72507054Y-32972224D01*
X72505205Y-32987992D01*
X72503791Y-33004253D01*
X72502812Y-33021005D01*
X72502268Y-33038250D01*
X72502146Y-33051507D01*
X72235564Y-33051507D01*
X72235710Y-33040029D01*
X72236540Y-33018647D01*
X72237925Y-32997619D01*
X72239863Y-32976946D01*
X72242356Y-32956627D01*
X72245402Y-32936662D01*
X72249002Y-32917051D01*
X72253156Y-32897794D01*
X72257863Y-32878892D01*
X72263125Y-32860343D01*
X72266940Y-32848175D01*
X72273121Y-32830216D01*
X72279850Y-32812746D01*
X72287126Y-32795766D01*
X72294950Y-32779275D01*
X72303321Y-32763274D01*
X72312239Y-32747762D01*
X72321705Y-32732740D01*
X72331718Y-32718207D01*
X72342278Y-32704163D01*
X72353386Y-32690609D01*
X72361096Y-32681845D01*
X72373185Y-32669139D01*
X72385821Y-32656987D01*
X72399005Y-32645388D01*
X72412736Y-32634344D01*
X72427014Y-32623853D01*
X72441840Y-32613916D01*
X72457214Y-32604533D01*
X72473134Y-32595704D01*
X72489602Y-32587428D01*
X72506618Y-32579707D01*
X72518266Y-32574867D01*
X72536207Y-32568058D01*
X72554721Y-32561918D01*
X72573808Y-32556449D01*
X72593468Y-32551649D01*
X72613701Y-32547518D01*
X72634508Y-32544058D01*
X72655888Y-32541267D01*
X72677840Y-32539146D01*
X72692794Y-32538105D01*
X72708002Y-32537360D01*
X72723466Y-32536914D01*
X72739184Y-32536765D01*
X72754488Y-32536895D01*
G37*
G36*
X74297331Y-33504333D02*
G01*
X74293529Y-33518796D01*
X74291103Y-33522285D01*
X74278556Y-33531321D01*
X74270220Y-33534741D01*
X74255614Y-33538738D01*
X74239746Y-33541383D01*
X74230652Y-33542435D01*
X74215654Y-33543675D01*
X74200667Y-33544436D01*
X74184123Y-33544877D01*
X74168371Y-33545000D01*
X74152315Y-33544877D01*
X74137486Y-33544509D01*
X74122041Y-33543787D01*
X74106582Y-33542593D01*
X74104990Y-33542435D01*
X74090421Y-33540617D01*
X74075583Y-33537870D01*
X74065422Y-33535108D01*
X74051898Y-33528642D01*
X74044906Y-33522651D01*
X74038976Y-33509065D01*
X74038678Y-33504699D01*
X74038678Y-32993255D01*
X74038523Y-32977392D01*
X74038059Y-32962412D01*
X74037045Y-32944925D01*
X74035548Y-32928816D01*
X74033567Y-32914085D01*
X74030554Y-32898225D01*
X74028786Y-32891039D01*
X74024180Y-32875216D01*
X74018698Y-32860445D01*
X74012339Y-32846726D01*
X74003999Y-32832334D01*
X74000576Y-32827292D01*
X73990569Y-32814675D01*
X73979235Y-32803570D01*
X73966573Y-32793976D01*
X73952582Y-32785893D01*
X73937309Y-32779481D01*
X73922931Y-32775374D01*
X73907606Y-32772669D01*
X73891335Y-32771367D01*
X73884072Y-32771238D01*
X73868589Y-32772097D01*
X73853053Y-32774673D01*
X73837462Y-32778966D01*
X73821819Y-32784977D01*
X73806121Y-32792705D01*
X73790370Y-32802150D01*
X73784054Y-32806409D01*
X73771352Y-32815706D01*
X73758523Y-32826010D01*
X73745569Y-32837321D01*
X73732489Y-32849640D01*
X73719282Y-32862967D01*
X73705950Y-32877301D01*
X73695868Y-32888712D01*
X73685716Y-32900691D01*
X73678908Y-32908991D01*
X73678908Y-33504699D01*
X73675106Y-33519163D01*
X73672680Y-33522651D01*
X73660718Y-33531322D01*
X73651431Y-33535108D01*
X73636644Y-33538854D01*
X73620845Y-33541396D01*
X73611863Y-33542435D01*
X73596955Y-33543675D01*
X73581854Y-33544436D01*
X73565012Y-33544877D01*
X73548849Y-33545000D01*
X73532810Y-33544877D01*
X73518034Y-33544509D01*
X73502692Y-33543787D01*
X73487404Y-33542593D01*
X73485834Y-33542435D01*
X73470084Y-33540412D01*
X73455469Y-33537613D01*
X73446267Y-33535108D01*
X73432446Y-33528526D01*
X73425384Y-33522285D01*
X73419454Y-33508698D01*
X73419156Y-33504333D01*
X73419156Y-32600879D01*
X73422286Y-32586416D01*
X73424285Y-32582927D01*
X73435822Y-32573381D01*
X73442603Y-32570471D01*
X73457002Y-32566226D01*
X73472215Y-32563458D01*
X73477408Y-32562777D01*
X73493272Y-32561317D01*
X73508119Y-32560573D01*
X73524647Y-32560235D01*
X73530530Y-32560212D01*
X73546307Y-32560373D01*
X73562359Y-32560936D01*
X73578086Y-32562038D01*
X73585119Y-32562777D01*
X73599939Y-32565061D01*
X73614553Y-32568930D01*
X73618458Y-32570471D01*
X73631328Y-32577984D01*
X73635677Y-32582927D01*
X73640626Y-32596880D01*
X73640806Y-32600512D01*
X73640806Y-32704926D01*
X73655117Y-32689563D01*
X73669473Y-32674933D01*
X73683873Y-32661038D01*
X73698319Y-32647876D01*
X73712811Y-32635449D01*
X73727347Y-32623757D01*
X73741928Y-32612798D01*
X73756554Y-32602573D01*
X73771226Y-32593083D01*
X73785942Y-32584327D01*
X73795778Y-32578897D01*
X73810671Y-32571367D01*
X73825673Y-32564579D01*
X73840784Y-32558530D01*
X73856005Y-32553223D01*
X73871335Y-32548656D01*
X73886775Y-32544829D01*
X73902325Y-32541744D01*
X73917983Y-32539398D01*
X73933752Y-32537794D01*
X73949630Y-32536930D01*
X73960276Y-32536765D01*
X73977604Y-32537036D01*
X73994416Y-32537847D01*
X74010714Y-32539199D01*
X74026496Y-32541093D01*
X74041763Y-32543527D01*
X74056515Y-32546502D01*
X74070752Y-32550019D01*
X74088932Y-32555548D01*
X74106197Y-32562040D01*
X74118545Y-32567540D01*
X74134276Y-32575491D01*
X74149228Y-32584141D01*
X74163402Y-32593489D01*
X74176797Y-32603535D01*
X74189414Y-32614280D01*
X74201252Y-32625723D01*
X74212311Y-32637864D01*
X74222592Y-32650704D01*
X74232141Y-32664082D01*
X74241002Y-32678021D01*
X74249177Y-32692521D01*
X74256664Y-32707582D01*
X74263465Y-32723204D01*
X74269579Y-32739387D01*
X74275005Y-32756131D01*
X74279745Y-32773436D01*
X74283867Y-32791463D01*
X74287439Y-32810370D01*
X74289757Y-32825130D01*
X74291767Y-32840385D01*
X74293467Y-32856136D01*
X74294858Y-32872383D01*
X74295940Y-32889126D01*
X74296713Y-32906365D01*
X74297176Y-32924100D01*
X74297331Y-32942330D01*
X74297331Y-33504333D01*
G37*
G36*
X75069627Y-33426297D02*
G01*
X75069421Y-33442075D01*
X75068659Y-33458692D01*
X75067337Y-33473381D01*
X75064812Y-33489433D01*
X75063765Y-33494075D01*
X75059510Y-33508550D01*
X75052718Y-33522214D01*
X75048744Y-33527048D01*
X75036531Y-33536651D01*
X75022746Y-33543784D01*
X75021633Y-33544267D01*
X75007293Y-33549505D01*
X74992610Y-33553853D01*
X74979501Y-33557090D01*
X74963959Y-33560274D01*
X74949237Y-33562711D01*
X74933820Y-33564743D01*
X74926745Y-33565516D01*
X74910818Y-33566933D01*
X74894776Y-33567886D01*
X74878618Y-33568375D01*
X74869592Y-33568447D01*
X74850587Y-33568138D01*
X74832223Y-33567210D01*
X74814500Y-33565665D01*
X74797418Y-33563501D01*
X74780977Y-33560719D01*
X74765178Y-33557318D01*
X74750020Y-33553300D01*
X74735502Y-33548663D01*
X74721701Y-33543483D01*
X74705302Y-33536089D01*
X74689851Y-33527676D01*
X74675349Y-33518243D01*
X74661795Y-33507791D01*
X74649188Y-33496318D01*
X74642080Y-33488946D01*
X74630990Y-33475728D01*
X74620849Y-33461490D01*
X74611656Y-33446232D01*
X74603411Y-33429955D01*
X74597498Y-33416200D01*
X74592191Y-33401791D01*
X74587491Y-33386730D01*
X74583370Y-33370902D01*
X74579798Y-33354376D01*
X74576775Y-33337151D01*
X74574302Y-33319228D01*
X74572379Y-33300606D01*
X74571005Y-33281286D01*
X74570335Y-33266338D01*
X74569974Y-33250996D01*
X74569906Y-33240551D01*
X74569906Y-32771238D01*
X74459996Y-32771238D01*
X74445494Y-32767248D01*
X74434898Y-32756480D01*
X74429955Y-32747058D01*
X74425467Y-32732770D01*
X74422592Y-32716962D01*
X74420909Y-32700956D01*
X74420057Y-32685887D01*
X74419706Y-32669243D01*
X74419696Y-32665725D01*
X74419899Y-32649580D01*
X74420601Y-32633409D01*
X74421950Y-32617769D01*
X74422261Y-32615167D01*
X74424768Y-32599711D01*
X74429015Y-32584839D01*
X74429955Y-32582561D01*
X74437791Y-32569690D01*
X74442777Y-32565341D01*
X74456973Y-32560393D01*
X74460729Y-32560212D01*
X74569906Y-32560212D01*
X74569906Y-32347355D01*
X74572745Y-32332880D01*
X74575401Y-32327937D01*
X74587039Y-32317982D01*
X74596284Y-32313649D01*
X74611321Y-32309151D01*
X74625792Y-32306503D01*
X74636218Y-32305223D01*
X74651394Y-32303806D01*
X74666489Y-32302936D01*
X74683096Y-32302432D01*
X74698866Y-32302292D01*
X74714904Y-32302432D01*
X74729681Y-32302853D01*
X74745022Y-32303677D01*
X74760311Y-32305042D01*
X74761881Y-32305223D01*
X74776607Y-32307148D01*
X74791445Y-32310308D01*
X74801448Y-32313649D01*
X74814640Y-32320601D01*
X74822331Y-32327937D01*
X74828170Y-32342020D01*
X74828559Y-32347355D01*
X74828559Y-32560212D01*
X75028594Y-32560212D01*
X75043057Y-32563343D01*
X75046546Y-32565341D01*
X75056280Y-32576311D01*
X75059368Y-32582561D01*
X75063856Y-32596574D01*
X75066559Y-32611332D01*
X75067062Y-32615167D01*
X75068522Y-32630398D01*
X75069324Y-32646197D01*
X75069617Y-32662007D01*
X75069627Y-32665725D01*
X75069376Y-32682684D01*
X75068625Y-32698068D01*
X75067062Y-32714452D01*
X75064327Y-32730701D01*
X75060000Y-32745492D01*
X75059368Y-32747058D01*
X75052027Y-32759809D01*
X75039701Y-32769325D01*
X75029327Y-32771238D01*
X74828559Y-32771238D01*
X74828559Y-33206113D01*
X74828925Y-33224396D01*
X74830024Y-33241512D01*
X74831856Y-33257461D01*
X74834421Y-33272241D01*
X74838657Y-33289075D01*
X74844038Y-33304084D01*
X74850564Y-33317268D01*
X74852006Y-33319685D01*
X74862237Y-33332510D01*
X74875070Y-33342681D01*
X74890505Y-33350198D01*
X74905354Y-33354436D01*
X74922010Y-33356831D01*
X74936636Y-33357421D01*
X74951457Y-33356906D01*
X74966234Y-33355185D01*
X74973639Y-33353757D01*
X74988290Y-33350162D01*
X75002948Y-33345697D01*
X75017061Y-33340429D01*
X75024930Y-33337271D01*
X75039363Y-33333640D01*
X75040684Y-33333607D01*
X75052408Y-33337271D01*
X75060625Y-33349929D01*
X75061200Y-33351926D01*
X75064678Y-33366197D01*
X75067062Y-33380502D01*
X75068625Y-33395357D01*
X75069424Y-33411418D01*
X75069627Y-33426297D01*
G37*
D13*
X80619048Y-33868666D02*
X81380953Y-33868666D01*
X81000000Y-34249619D02*
X81000000Y-33487714D01*
D12*
X71754130Y-56701905D02*
X71359350Y-56968187D01*
X71359350Y-56968187D02*
X70800157Y-56139150D01*
X71737565Y-56081250D02*
X72013911Y-55894852D01*
X72425256Y-56249225D02*
X72030476Y-56515507D01*
X72030476Y-56515507D02*
X71471283Y-55686470D01*
X71471283Y-55686470D02*
X71866063Y-55420187D01*
X72780558Y-56009571D02*
X72221365Y-55180533D01*
X72221365Y-55180533D02*
X72418755Y-55047392D01*
X72418755Y-55047392D02*
X72563817Y-55006985D01*
X72563817Y-55006985D02*
X72696029Y-55032685D01*
X72696029Y-55032685D02*
X72788764Y-55085013D01*
X72788764Y-55085013D02*
X72934755Y-55216296D01*
X72934755Y-55216296D02*
X73014639Y-55334730D01*
X73014639Y-55334730D02*
X73081674Y-55519270D01*
X73081674Y-55519270D02*
X73095453Y-55624855D01*
X73095453Y-55624855D02*
X73069753Y-55757067D01*
X73069753Y-55757067D02*
X72977948Y-55876430D01*
X72977948Y-55876430D02*
X72780558Y-56009571D01*
D11*
X94130310Y-47679012D02*
X94754426Y-47242002D01*
X94660873Y-47772565D02*
X94223863Y-47148449D01*
D12*
X57461904Y-56128409D02*
X57604761Y-56176028D01*
X57604761Y-56176028D02*
X57652380Y-56223647D01*
X57652380Y-56223647D02*
X57699999Y-56318885D01*
X57699999Y-56318885D02*
X57699999Y-56461742D01*
X57699999Y-56461742D02*
X57652380Y-56556980D01*
X57652380Y-56556980D02*
X57604761Y-56604600D01*
X57604761Y-56604600D02*
X57509523Y-56652219D01*
X57509523Y-56652219D02*
X57128571Y-56652219D01*
X57128571Y-56652219D02*
X57128571Y-55652219D01*
X57128571Y-55652219D02*
X57461904Y-55652219D01*
X57461904Y-55652219D02*
X57557142Y-55699838D01*
X57557142Y-55699838D02*
X57604761Y-55747457D01*
X57604761Y-55747457D02*
X57652380Y-55842695D01*
X57652380Y-55842695D02*
X57652380Y-55937933D01*
X57652380Y-55937933D02*
X57604761Y-56033171D01*
X57604761Y-56033171D02*
X57557142Y-56080790D01*
X57557142Y-56080790D02*
X57461904Y-56128409D01*
X57461904Y-56128409D02*
X57128571Y-56128409D01*
X58080952Y-56366504D02*
X58557142Y-56366504D01*
X57985714Y-56652219D02*
X58319047Y-55652219D01*
X58319047Y-55652219D02*
X58652380Y-56652219D01*
X58842857Y-55652219D02*
X59414285Y-55652219D01*
X59128571Y-56652219D02*
X59128571Y-55652219D01*
D13*
X81268666Y-44780951D02*
X81268666Y-44019047D01*
D12*
X75951258Y-62798412D02*
X75853924Y-62810269D01*
X75853924Y-62810269D02*
X75749907Y-62885842D01*
X75749907Y-62885842D02*
X75673880Y-62999939D01*
X75673880Y-62999939D02*
X75660516Y-63127370D01*
X75660516Y-63127370D02*
X75681823Y-63229610D01*
X75681823Y-63229610D02*
X75759110Y-63408899D01*
X75759110Y-63408899D02*
X75843079Y-63524473D01*
X75843079Y-63524473D02*
X75989711Y-63653380D01*
X75989711Y-63653380D02*
X76080362Y-63705239D01*
X76080362Y-63705239D02*
X76205686Y-63731907D01*
X76205686Y-63731907D02*
X76337692Y-63694859D01*
X76337692Y-63694859D02*
X76407037Y-63644477D01*
X76407037Y-63644477D02*
X76483063Y-63530380D01*
X76483063Y-63530380D02*
X76489746Y-63466665D01*
X76489746Y-63466665D02*
X76293817Y-63196992D01*
X76293817Y-63196992D02*
X76155129Y-63297756D01*
X76857775Y-63316997D02*
X76269989Y-62507980D01*
X76269989Y-62507980D02*
X77273841Y-63014707D01*
X77273841Y-63014707D02*
X76686055Y-62205690D01*
X77620562Y-62762799D02*
X77032777Y-61953782D01*
X77032777Y-61953782D02*
X77206138Y-61827828D01*
X77206138Y-61827828D02*
X77338144Y-61790781D01*
X77338144Y-61790781D02*
X77463468Y-61817448D01*
X77463468Y-61817448D02*
X77554119Y-61869307D01*
X77554119Y-61869307D02*
X77700751Y-61998214D01*
X77700751Y-61998214D02*
X77784720Y-62113788D01*
X77784720Y-62113788D02*
X77862007Y-62293078D01*
X77862007Y-62293078D02*
X77883314Y-62395318D01*
X77883314Y-62395318D02*
X77869950Y-62522748D01*
X77869950Y-62522748D02*
X77793923Y-62636845D01*
X77793923Y-62636845D02*
X77620562Y-62762799D01*
X88269378Y-44313061D02*
X87856985Y-44551157D01*
X87856985Y-44551157D02*
X87356985Y-43685131D01*
X88296149Y-43692762D02*
X88584824Y-43526096D01*
X88970447Y-43908299D02*
X88558054Y-44146395D01*
X88558054Y-44146395D02*
X88058054Y-43280369D01*
X88058054Y-43280369D02*
X88470447Y-43042274D01*
X89341600Y-43694014D02*
X88841600Y-42827988D01*
X88841600Y-42827988D02*
X89047797Y-42708941D01*
X89047797Y-42708941D02*
X89195324Y-42678751D01*
X89195324Y-42678751D02*
X89325422Y-42713611D01*
X89325422Y-42713611D02*
X89414280Y-42772280D01*
X89414280Y-42772280D02*
X89550758Y-42913428D01*
X89550758Y-42913428D02*
X89622186Y-43037146D01*
X89622186Y-43037146D02*
X89676185Y-43225912D01*
X89676185Y-43225912D02*
X89682565Y-43332200D01*
X89682565Y-43332200D02*
X89647705Y-43462298D01*
X89647705Y-43462298D02*
X89547797Y-43574966D01*
X89547797Y-43574966D02*
X89341600Y-43694014D01*
X86924995Y-42107048D02*
X87072522Y-42076859D01*
X87072522Y-42076859D02*
X87137571Y-42094289D01*
X87137571Y-42094289D02*
X87226429Y-42152958D01*
X87226429Y-42152958D02*
X87297858Y-42276676D01*
X87297858Y-42276676D02*
X87304238Y-42382964D01*
X87304238Y-42382964D02*
X87286808Y-42448013D01*
X87286808Y-42448013D02*
X87228139Y-42536871D01*
X87228139Y-42536871D02*
X86898224Y-42727347D01*
X86898224Y-42727347D02*
X86398224Y-41861322D01*
X86398224Y-41861322D02*
X86686900Y-41694655D01*
X86686900Y-41694655D02*
X86793188Y-41688275D01*
X86793188Y-41688275D02*
X86858237Y-41705705D01*
X86858237Y-41705705D02*
X86947095Y-41764374D01*
X86947095Y-41764374D02*
X86994714Y-41846853D01*
X86994714Y-41846853D02*
X87001094Y-41953141D01*
X87001094Y-41953141D02*
X86983664Y-42018190D01*
X86983664Y-42018190D02*
X86924995Y-42107048D01*
X86924995Y-42107048D02*
X86636320Y-42273715D01*
X87580153Y-42003721D02*
X87992547Y-41765626D01*
X87640532Y-42298776D02*
X87429207Y-41266084D01*
X87429207Y-41266084D02*
X88217882Y-41965442D01*
X87882840Y-41004179D02*
X88377711Y-40718464D01*
X88630275Y-41727347D02*
X88130275Y-40861322D01*
X72045624Y-61096244D02*
X72225322Y-60543454D01*
X71701730Y-60639881D02*
X72500365Y-60038066D01*
X72500365Y-60038066D02*
X72729628Y-60342308D01*
X72729628Y-60342308D02*
X72748914Y-60447026D01*
X72748914Y-60447026D02*
X72739541Y-60513715D01*
X72739541Y-60513715D02*
X72692139Y-60609061D01*
X72692139Y-60609061D02*
X72578048Y-60695034D01*
X72578048Y-60695034D02*
X72473329Y-60714320D01*
X72473329Y-60714320D02*
X72406641Y-60704947D01*
X72406641Y-60704947D02*
X72311295Y-60657545D01*
X72311295Y-60657545D02*
X72082032Y-60353302D01*
X72997462Y-60855987D02*
X73064150Y-60865359D01*
X73064150Y-60865359D02*
X73159496Y-60912762D01*
X73159496Y-60912762D02*
X73302785Y-61102913D01*
X73302785Y-61102913D02*
X73322071Y-61207632D01*
X73322071Y-61207632D02*
X73312698Y-61274320D01*
X73312698Y-61274320D02*
X73265296Y-61369666D01*
X73265296Y-61369666D02*
X73189235Y-61426982D01*
X73189235Y-61426982D02*
X73046487Y-61474925D01*
X73046487Y-61474925D02*
X72246229Y-61362456D01*
X72246229Y-61362456D02*
X72618781Y-61856849D01*
X76138539Y-58339046D02*
X76318237Y-57786256D01*
X75794645Y-57882683D02*
X76593280Y-57280868D01*
X76593280Y-57280868D02*
X76822543Y-57585110D01*
X76822543Y-57585110D02*
X76841829Y-57689828D01*
X76841829Y-57689828D02*
X76832456Y-57756517D01*
X76832456Y-57756517D02*
X76785054Y-57851863D01*
X76785054Y-57851863D02*
X76670963Y-57937836D01*
X76670963Y-57937836D02*
X76566244Y-57957122D01*
X76566244Y-57957122D02*
X76499556Y-57947749D01*
X76499556Y-57947749D02*
X76404210Y-57900347D01*
X76404210Y-57900347D02*
X76174947Y-57596104D01*
X76711696Y-59099651D02*
X76367802Y-58643288D01*
X76539749Y-58871470D02*
X77338385Y-58269655D01*
X77338385Y-58269655D02*
X77166978Y-58279568D01*
X77166978Y-58279568D02*
X77033602Y-58260823D01*
X77033602Y-58260823D02*
X76938256Y-58213420D01*
D16*
%TO.C,D1*%
X79200474Y-43517291D02*
X83481864Y-43367781D01*
X83397173Y-43311857D02*
G75*
G03*
X79278778Y-43454520I-2197696J3926848D01*
G01*
D17*
%TO.C,SW1*%
X92525456Y-47133846D02*
X94725161Y-45863846D01*
X87445456Y-38335028D02*
X92525456Y-47133846D01*
X89645161Y-37065028D02*
X87445456Y-38335028D01*
D18*
%TO.C,R2*%
X71433281Y-57321174D02*
X75369151Y-62544250D01*
X71169731Y-57519773D02*
X71433281Y-57321174D01*
X69508569Y-58771548D02*
X69245019Y-58970147D01*
X69245019Y-58970147D02*
X73180890Y-64193223D01*
X75369151Y-62544250D02*
X75105601Y-62742849D01*
X73180890Y-64193223D02*
X73444439Y-63994624D01*
%TO.C,R1*%
X75526196Y-54563976D02*
X79462066Y-59787052D01*
X75262646Y-54762575D02*
X75526196Y-54563976D01*
X73601484Y-56014350D02*
X73337934Y-56212949D01*
X73337934Y-56212949D02*
X77273805Y-61436025D01*
X79462066Y-59787052D02*
X79198516Y-59985651D01*
X77273805Y-61436025D02*
X77537354Y-61237426D01*
%TD*%
M02*
