%TF.GenerationSoftware,KiCad,Pcbnew,7.0.8*%
%TF.CreationDate,2024-03-13T12:39:06-06:00*%
%TF.ProjectId,Flex-E Rex 1_4,466c6578-2d45-4205-9265-7820315f342e,rev?*%
%TF.SameCoordinates,Original*%
%TF.FileFunction,Copper,L2,Bot*%
%TF.FilePolarity,Positive*%
%FSLAX46Y46*%
G04 Gerber Fmt 4.6, Leading zero omitted, Abs format (unit mm)*
G04 Created by KiCad (PCBNEW 7.0.8) date 2024-03-13 12:39:06*
%MOMM*%
%LPD*%
G01*
G04 APERTURE LIST*
G04 Aperture macros list*
%AMRoundRect*
0 Rectangle with rounded corners*
0 $1 Rounding radius*
0 $2 $3 $4 $5 $6 $7 $8 $9 X,Y pos of 4 corners*
0 Add a 4 corners polygon primitive as box body*
4,1,4,$2,$3,$4,$5,$6,$7,$8,$9,$2,$3,0*
0 Add four circle primitives for the rounded corners*
1,1,$1+$1,$2,$3*
1,1,$1+$1,$4,$5*
1,1,$1+$1,$6,$7*
1,1,$1+$1,$8,$9*
0 Add four rect primitives between the rounded corners*
20,1,$1+$1,$2,$3,$4,$5,0*
20,1,$1+$1,$4,$5,$6,$7,0*
20,1,$1+$1,$6,$7,$8,$9,0*
20,1,$1+$1,$8,$9,$2,$3,0*%
%AMHorizOval*
0 Thick line with rounded ends*
0 $1 width*
0 $2 $3 position (X,Y) of the first rounded end (center of the circle)*
0 $4 $5 position (X,Y) of the second rounded end (center of the circle)*
0 Add line between two ends*
20,1,$1,$2,$3,$4,$5,0*
0 Add two circle primitives to create the rounded ends*
1,1,$1,$2,$3*
1,1,$1,$4,$5*%
G04 Aperture macros list end*
%TA.AperFunction,ComponentPad*%
%ADD10HorizOval,1.700000X0.088168X-0.121353X-0.088168X0.121353X0*%
%TD*%
%TA.AperFunction,ComponentPad*%
%ADD11RoundRect,0.450000X0.965126X-0.416571X0.933717X0.482880X-0.965126X0.416571X-0.933717X-0.482880X0*%
%TD*%
%TA.AperFunction,ComponentPad*%
%ADD12HorizOval,1.800000X0.499695X0.017450X-0.499695X-0.017450X0*%
%TD*%
%TA.AperFunction,ComponentPad*%
%ADD13C,4.000000*%
%TD*%
%TA.AperFunction,ComponentPad*%
%ADD14C,1.498600*%
%TD*%
%TA.AperFunction,ComponentPad*%
%ADD15HorizOval,1.500000X0.129904X0.075000X-0.129904X-0.075000X0*%
%TD*%
%TA.AperFunction,ComponentPad*%
%ADD16C,1.500000*%
%TD*%
%TA.AperFunction,ComponentPad*%
%ADD17HorizOval,2.500000X0.000000X0.000000X0.000000X0.000000X0*%
%TD*%
%TA.AperFunction,ComponentPad*%
%ADD18HorizOval,2.400000X-0.039932X-0.030091X0.039932X0.030091X0*%
%TD*%
%TA.AperFunction,ComponentPad*%
%ADD19RoundRect,0.450000X0.416571X0.965126X-0.482880X0.933717X-0.416571X-0.965126X0.482880X-0.933717X0*%
%TD*%
%TA.AperFunction,ComponentPad*%
%ADD20HorizOval,1.800000X-0.017450X0.499695X0.017450X-0.499695X0*%
%TD*%
%TA.AperFunction,Conductor*%
%ADD21C,0.500000*%
%TD*%
G04 APERTURE END LIST*
D10*
%TO.P,J1,1,Pin_1*%
%TO.N,+3V0*%
X95231497Y-48650574D03*
%TO.P,J1,2,Pin_2*%
%TO.N,GND*%
X93176594Y-50143549D03*
%TD*%
D11*
%TO.P,D1,1,K*%
%TO.N,Net-(D1-K)*%
X81288122Y-41923462D03*
D12*
%TO.P,D1,3*%
%TO.N,+3V0*%
X81110833Y-36846557D03*
%TD*%
D13*
%TO.P,BT1,S+1*%
%TO.N,Net-(BT1-PadS+1)*%
X61800000Y-34600000D03*
%TO.P,BT1,S+2*%
X61800000Y-56200000D03*
%TD*%
D14*
%TO.P,SW1,5*%
%TO.N,N/C*%
X90201161Y-38028049D03*
%TO.P,SW1,4*%
X94201161Y-44956252D03*
D15*
%TO.P,SW1,3,3*%
%TO.N,Net-(BT1-PadS+1)*%
X91201161Y-39760099D03*
%TO.P,SW1,2,2*%
%TO.N,+3V0*%
X92201161Y-41492150D03*
D16*
%TO.P,SW1,1,1*%
%TO.N,unconnected-(SW1-Pad1)*%
X93201161Y-43224202D03*
%TD*%
D17*
%TO.P,R2,1*%
%TO.N,Net-(D1-K)*%
X70014170Y-57357199D03*
D18*
%TO.P,R2,2*%
%TO.N,GND*%
X74600000Y-63442802D03*
%TD*%
D17*
%TO.P,R1,1*%
%TO.N,Net-(D2-K)*%
X73807085Y-54657199D03*
%TO.P,R1,2*%
%TO.N,GND*%
X78392915Y-60742802D03*
%TD*%
D19*
%TO.P,D2,1,K*%
%TO.N,Net-(D2-K)*%
X83723462Y-39311879D03*
D20*
%TO.P,D2,3*%
%TO.N,+3V0*%
X78646557Y-39489168D03*
%TD*%
D21*
%TO.N,Net-(D1-K)*%
X72400000Y-51000000D02*
X70014170Y-53385830D01*
X70014170Y-53385830D02*
X70014170Y-57357199D01*
%TO.N,Net-(D2-K)*%
X73807085Y-46192915D02*
X73807085Y-54657199D01*
X74107085Y-45892915D02*
X73807085Y-46192915D01*
%TO.N,Net-(BT1-PadS+1)*%
X61800000Y-34600000D02*
X61800000Y-56200000D01*
%TO.N,+3V0*%
X78646557Y-39310833D02*
X78646557Y-39489168D01*
%TO.N,Net-(D1-K)*%
X72400000Y-42800000D02*
X72400000Y-51000000D01*
X73276538Y-41923462D02*
X72400000Y-42800000D01*
X81288122Y-41923462D02*
X73276538Y-41923462D01*
%TO.N,Net-(D2-K)*%
X75400000Y-44600000D02*
X83000000Y-44600000D01*
X83723462Y-43876538D02*
X83723462Y-39311879D01*
X74107085Y-45892915D02*
X75400000Y-44600000D01*
X83000000Y-44600000D02*
X83723462Y-43876538D01*
%TD*%
%TA.AperFunction,Conductor*%
%TO.N,Net-(D1-K)*%
G36*
X70265504Y-55239145D02*
G01*
X70267498Y-55241807D01*
X71007618Y-56596064D01*
X71008578Y-56604967D01*
X71004398Y-56611015D01*
X70019577Y-57354118D01*
X70010909Y-57356365D01*
X70007938Y-57355539D01*
X69025072Y-56936098D01*
X69018808Y-56929699D01*
X69018903Y-56920745D01*
X69018906Y-56920737D01*
X69761089Y-55242685D01*
X69767569Y-55236505D01*
X69771789Y-55235718D01*
X70257231Y-55235718D01*
X70265504Y-55239145D01*
G37*
%TD.AperFunction*%
%TD*%
%TA.AperFunction,Conductor*%
%TO.N,Net-(D2-K)*%
G36*
X74058419Y-52539145D02*
G01*
X74060413Y-52541807D01*
X74800533Y-53896064D01*
X74801493Y-53904967D01*
X74797313Y-53911015D01*
X73812492Y-54654118D01*
X73803824Y-54656365D01*
X73800853Y-54655539D01*
X72817987Y-54236098D01*
X72811723Y-54229699D01*
X72811818Y-54220745D01*
X72811821Y-54220737D01*
X73554004Y-52542685D01*
X73560484Y-52536505D01*
X73564704Y-52535718D01*
X74050146Y-52535718D01*
X74058419Y-52539145D01*
G37*
%TD.AperFunction*%
%TD*%
%TA.AperFunction,Conductor*%
%TO.N,Net-(BT1-PadS+1)*%
G36*
X61805902Y-34612090D02*
G01*
X61810102Y-34616290D01*
X62796531Y-36304607D01*
X62797746Y-36313479D01*
X62796502Y-36316462D01*
X62053396Y-37573896D01*
X62046236Y-37579274D01*
X62043323Y-37579643D01*
X61556677Y-37579643D01*
X61548404Y-37576216D01*
X61546604Y-37573896D01*
X60803497Y-36316462D01*
X60802238Y-36307596D01*
X60803466Y-36304611D01*
X61789898Y-34616289D01*
X61797030Y-34610875D01*
X61805902Y-34612090D01*
G37*
%TD.AperFunction*%
%TD*%
%TA.AperFunction,Conductor*%
%TO.N,Net-(BT1-PadS+1)*%
G36*
X62051596Y-53223784D02*
G01*
X62053396Y-53226104D01*
X62796502Y-54483536D01*
X62797761Y-54492402D01*
X62796531Y-54495391D01*
X61810102Y-56183709D01*
X61802970Y-56189124D01*
X61794098Y-56187909D01*
X61789898Y-56183709D01*
X60803468Y-54495391D01*
X60802253Y-54486519D01*
X60803494Y-54483541D01*
X61546604Y-53226104D01*
X61553764Y-53220725D01*
X61556677Y-53220357D01*
X62043323Y-53220357D01*
X62051596Y-53223784D01*
G37*
%TD.AperFunction*%
%TD*%
%TA.AperFunction,Conductor*%
%TO.N,Net-(D1-K)*%
G36*
X80142126Y-41101523D02*
G01*
X81276712Y-41914569D01*
X81281441Y-41922173D01*
X81279407Y-41930894D01*
X81277308Y-41933132D01*
X80195800Y-42818491D01*
X80187228Y-42821080D01*
X80182825Y-42819730D01*
X78993405Y-42176778D01*
X78987757Y-42169830D01*
X78987269Y-42166486D01*
X78987269Y-41680684D01*
X78990696Y-41672411D01*
X78993726Y-41670225D01*
X80130068Y-41100574D01*
X80138999Y-41099930D01*
X80142126Y-41101523D01*
G37*
%TD.AperFunction*%
%TD*%
%TA.AperFunction,Conductor*%
%TO.N,Net-(D2-K)*%
G36*
X83730894Y-39320593D02*
G01*
X83733132Y-39322692D01*
X84618491Y-40404199D01*
X84621080Y-40412771D01*
X84619730Y-40417174D01*
X84108286Y-41363314D01*
X83976953Y-41606275D01*
X83976779Y-41606596D01*
X83969831Y-41612244D01*
X83966487Y-41612732D01*
X83480684Y-41612732D01*
X83472411Y-41609305D01*
X83470225Y-41606275D01*
X82900574Y-40469932D01*
X82899930Y-40461001D01*
X82901523Y-40457874D01*
X82933844Y-40412771D01*
X83714570Y-39323287D01*
X83722173Y-39318559D01*
X83730894Y-39320593D01*
G37*
%TD.AperFunction*%
%TD*%
M02*
