%TF.GenerationSoftware,KiCad,Pcbnew,7.0.8*%
%TF.CreationDate,2024-01-24T13:43:59-07:00*%
%TF.ProjectId,Flex-E Rex 1_4,466c6578-2d45-4205-9265-7820315f342e,rev?*%
%TF.SameCoordinates,Original*%
%TF.FileFunction,Copper,L2,Bot*%
%TF.FilePolarity,Positive*%
%FSLAX46Y46*%
G04 Gerber Fmt 4.6, Leading zero omitted, Abs format (unit mm)*
G04 Created by KiCad (PCBNEW 7.0.8) date 2024-01-24 13:43:59*
%MOMM*%
%LPD*%
G01*
G04 APERTURE LIST*
G04 Aperture macros list*
%AMHorizOval*
0 Thick line with rounded ends*
0 $1 width*
0 $2 $3 position (X,Y) of the first rounded end (center of the circle)*
0 $4 $5 position (X,Y) of the second rounded end (center of the circle)*
0 Add line between two ends*
20,1,$1,$2,$3,$4,$5,0*
0 Add two circle primitives to create the rounded ends*
1,1,$1,$2,$3*
1,1,$1,$4,$5*%
%AMRotRect*
0 Rectangle, with rotation*
0 The origin of the aperture is its center*
0 $1 length*
0 $2 width*
0 $3 Rotation angle, in degrees counterclockwise*
0 Add horizontal line*
21,1,$1,$2,0,0,$3*%
G04 Aperture macros list end*
%TA.AperFunction,ComponentPad*%
%ADD10RotRect,1.700000X1.700000X306.000000*%
%TD*%
%TA.AperFunction,ComponentPad*%
%ADD11HorizOval,1.700000X0.000000X0.000000X0.000000X0.000000X0*%
%TD*%
%TA.AperFunction,ComponentPad*%
%ADD12RotRect,1.800000X1.800000X92.000000*%
%TD*%
%TA.AperFunction,ComponentPad*%
%ADD13C,1.800000*%
%TD*%
%TA.AperFunction,ComponentPad*%
%ADD14C,3.000000*%
%TD*%
%TA.AperFunction,ComponentPad*%
%ADD15C,1.320800*%
%TD*%
%TA.AperFunction,ComponentPad*%
%ADD16C,1.498600*%
%TD*%
%TA.AperFunction,ComponentPad*%
%ADD17C,1.600000*%
%TD*%
%TA.AperFunction,ComponentPad*%
%ADD18HorizOval,1.600000X0.000000X0.000000X0.000000X0.000000X0*%
%TD*%
%TA.AperFunction,ComponentPad*%
%ADD19RotRect,1.800000X1.800000X182.000000*%
%TD*%
%TA.AperFunction,Conductor*%
%ADD20C,0.500000*%
%TD*%
G04 APERTURE END LIST*
D10*
%TO.P,J1,1,Pin_1*%
%TO.N,+3V0*%
X95231497Y-48650574D03*
D11*
%TO.P,J1,2,Pin_2*%
%TO.N,GND*%
X93176594Y-50143549D03*
%TD*%
D12*
%TO.P,D1,1,K*%
%TO.N,Net-(D1-K)*%
X81288122Y-41923462D03*
D13*
%TO.P,D1,3*%
%TO.N,+3V0*%
X81110833Y-36846557D03*
%TD*%
D14*
%TO.P,BT1,S+1*%
%TO.N,Net-(BT1-PadS+1)*%
X61800000Y-34600000D03*
%TO.P,BT1,S+2*%
X61800000Y-56200000D03*
%TD*%
D15*
%TO.P,SW1,1,1*%
%TO.N,unconnected-(SW1-Pad1)*%
X93201161Y-43224202D03*
%TO.P,SW1,2,2*%
%TO.N,+3V0*%
X92201161Y-41492150D03*
%TO.P,SW1,3,3*%
%TO.N,Net-(BT1-PadS+1)*%
X91201161Y-39760099D03*
D16*
%TO.P,SW1,4*%
%TO.N,N/C*%
X94201161Y-44956252D03*
%TO.P,SW1,5*%
X90201161Y-38028049D03*
%TD*%
D17*
%TO.P,R2,1*%
%TO.N,Net-(D1-K)*%
X70014170Y-57714397D03*
D18*
%TO.P,R2,2*%
%TO.N,GND*%
X74600000Y-63800000D03*
%TD*%
D17*
%TO.P,R1,1*%
%TO.N,Net-(D2-K)*%
X74107085Y-54957199D03*
D18*
%TO.P,R1,2*%
%TO.N,GND*%
X78692915Y-61042802D03*
%TD*%
D19*
%TO.P,D2,1,K*%
%TO.N,Net-(D2-K)*%
X83723462Y-39311879D03*
D13*
%TO.P,D2,3*%
%TO.N,+3V0*%
X78646557Y-39489168D03*
%TD*%
D20*
%TO.N,Net-(BT1-PadS+1)*%
X61800000Y-34600000D02*
X61800000Y-56200000D01*
%TO.N,+3V0*%
X78646557Y-39310833D02*
X78646557Y-39489168D01*
%TO.N,Net-(D1-K)*%
X72400000Y-42800000D02*
X72400000Y-51000000D01*
X70000000Y-53400000D02*
X70000000Y-54400000D01*
X72400000Y-51000000D02*
X70000000Y-53400000D01*
X73276538Y-41923462D02*
X72400000Y-42800000D01*
X70000000Y-54400000D02*
X70014170Y-54414170D01*
X70014170Y-54414170D02*
X70014170Y-57714397D01*
X81288122Y-41923462D02*
X73276538Y-41923462D01*
%TO.N,Net-(D2-K)*%
X75400000Y-44600000D02*
X83000000Y-44600000D01*
X83723462Y-43876538D02*
X83723462Y-39311879D01*
X74107085Y-45892915D02*
X75400000Y-44600000D01*
X74107085Y-54957199D02*
X74107085Y-45892915D01*
X83000000Y-44600000D02*
X83723462Y-43876538D01*
%TD*%
%TA.AperFunction,Conductor*%
%TO.N,Net-(D1-K)*%
G36*
X70264358Y-56117824D02*
G01*
X70267029Y-56121960D01*
X70749269Y-57397655D01*
X70748989Y-57406605D01*
X70742815Y-57412596D01*
X70018660Y-57713531D01*
X70009706Y-57713541D01*
X69285523Y-57412595D01*
X69279199Y-57406257D01*
X69279070Y-57397657D01*
X69761311Y-56121959D01*
X69767442Y-56115433D01*
X69772255Y-56114397D01*
X70256085Y-56114397D01*
X70264358Y-56117824D01*
G37*
%TD.AperFunction*%
%TD*%
%TA.AperFunction,Conductor*%
%TO.N,Net-(D2-K)*%
G36*
X74357273Y-53360626D02*
G01*
X74359944Y-53364762D01*
X74842184Y-54640457D01*
X74841904Y-54649407D01*
X74835730Y-54655398D01*
X74111575Y-54956333D01*
X74102621Y-54956343D01*
X73378438Y-54655397D01*
X73372114Y-54649059D01*
X73371985Y-54640459D01*
X73854226Y-53364761D01*
X73860357Y-53358235D01*
X73865170Y-53357199D01*
X74349000Y-53357199D01*
X74357273Y-53360626D01*
G37*
%TD.AperFunction*%
%TD*%
%TA.AperFunction,Conductor*%
%TO.N,Net-(D1-K)*%
G36*
X80364239Y-41061920D02*
G01*
X81280400Y-41915337D01*
X81284118Y-41923483D01*
X81280986Y-41931873D01*
X81280837Y-41932030D01*
X80425933Y-42816292D01*
X80417718Y-42819858D01*
X80410825Y-42817755D01*
X79492578Y-42176954D01*
X79487755Y-42169409D01*
X79487574Y-42167359D01*
X79487574Y-41679500D01*
X79491001Y-41671227D01*
X79492487Y-41669970D01*
X80349488Y-41060943D01*
X80358215Y-41058945D01*
X80364239Y-41061920D01*
G37*
%TD.AperFunction*%
%TD*%
%TA.AperFunction,Conductor*%
%TO.N,Net-(BT1-PadS+1)*%
G36*
X61807885Y-34607716D02*
G01*
X61808637Y-34608468D01*
X62207754Y-35045982D01*
X62794430Y-35689098D01*
X62797474Y-35697519D01*
X62796107Y-35702493D01*
X62053305Y-37093810D01*
X62046386Y-37099495D01*
X62042984Y-37100000D01*
X61557016Y-37100000D01*
X61548743Y-37096573D01*
X61546695Y-37093810D01*
X60803892Y-35702493D01*
X60803018Y-35693581D01*
X60805569Y-35689098D01*
X61791356Y-34608474D01*
X61799464Y-34604672D01*
X61807885Y-34607716D01*
G37*
%TD.AperFunction*%
%TD*%
%TA.AperFunction,Conductor*%
%TO.N,Net-(BT1-PadS+1)*%
G36*
X62051257Y-53703427D02*
G01*
X62053305Y-53706190D01*
X62796107Y-55097506D01*
X62796981Y-55106418D01*
X62794430Y-55110901D01*
X61808644Y-56191524D01*
X61800536Y-56195327D01*
X61792115Y-56192283D01*
X61791356Y-56191524D01*
X60805569Y-55110901D01*
X60802525Y-55102480D01*
X60803891Y-55097508D01*
X61546695Y-53706189D01*
X61553614Y-53700505D01*
X61557016Y-53700000D01*
X62042984Y-53700000D01*
X62051257Y-53703427D01*
G37*
%TD.AperFunction*%
%TD*%
%TA.AperFunction,Conductor*%
%TO.N,Net-(D2-K)*%
G36*
X83731873Y-39319014D02*
G01*
X83732030Y-39319163D01*
X84616292Y-40174066D01*
X84619858Y-40182281D01*
X84617755Y-40189174D01*
X83976954Y-41107423D01*
X83969409Y-41112246D01*
X83967359Y-41112427D01*
X83479500Y-41112427D01*
X83471227Y-41109000D01*
X83469963Y-41107504D01*
X83469905Y-41107423D01*
X82860944Y-40250513D01*
X82858945Y-40241785D01*
X82861918Y-40235763D01*
X83715339Y-39319598D01*
X83723483Y-39315882D01*
X83731873Y-39319014D01*
G37*
%TD.AperFunction*%
%TD*%
M02*
