%TF.GenerationSoftware,KiCad,Pcbnew,7.0.8*%
%TF.CreationDate,2024-01-17T10:12:40-07:00*%
%TF.ProjectId,Flex-E Rex 1_4,466c6578-2d45-4205-9265-7820315f342e,rev?*%
%TF.SameCoordinates,Original*%
%TF.FileFunction,Copper,L1,Top*%
%TF.FilePolarity,Positive*%
%FSLAX46Y46*%
G04 Gerber Fmt 4.6, Leading zero omitted, Abs format (unit mm)*
G04 Created by KiCad (PCBNEW 7.0.8) date 2024-01-17 10:12:40*
%MOMM*%
%LPD*%
G01*
G04 APERTURE LIST*
G04 Aperture macros list*
%AMHorizOval*
0 Thick line with rounded ends*
0 $1 width*
0 $2 $3 position (X,Y) of the first rounded end (center of the circle)*
0 $4 $5 position (X,Y) of the second rounded end (center of the circle)*
0 Add line between two ends*
20,1,$1,$2,$3,$4,$5,0*
0 Add two circle primitives to create the rounded ends*
1,1,$1,$2,$3*
1,1,$1,$4,$5*%
%AMRotRect*
0 Rectangle, with rotation*
0 The origin of the aperture is its center*
0 $1 length*
0 $2 width*
0 $3 Rotation angle, in degrees counterclockwise*
0 Add horizontal line*
21,1,$1,$2,0,0,$3*%
G04 Aperture macros list end*
%TA.AperFunction,ComponentPad*%
%ADD10RotRect,1.800000X1.800000X182.000000*%
%TD*%
%TA.AperFunction,ComponentPad*%
%ADD11C,1.800000*%
%TD*%
%TA.AperFunction,ComponentPad*%
%ADD12RotRect,1.800000X1.800000X92.000000*%
%TD*%
%TA.AperFunction,ComponentPad*%
%ADD13C,1.320800*%
%TD*%
%TA.AperFunction,ComponentPad*%
%ADD14C,1.498600*%
%TD*%
%TA.AperFunction,ComponentPad*%
%ADD15C,1.600000*%
%TD*%
%TA.AperFunction,ComponentPad*%
%ADD16HorizOval,1.600000X0.000000X0.000000X0.000000X0.000000X0*%
%TD*%
%TA.AperFunction,ComponentPad*%
%ADD17RotRect,1.700000X1.700000X306.000000*%
%TD*%
%TA.AperFunction,ComponentPad*%
%ADD18HorizOval,1.700000X0.000000X0.000000X0.000000X0.000000X0*%
%TD*%
%TA.AperFunction,SMDPad,CuDef*%
%ADD19O,18.000000X16.000000*%
%TD*%
%TA.AperFunction,ComponentPad*%
%ADD20C,3.000000*%
%TD*%
%TA.AperFunction,Conductor*%
%ADD21C,0.500000*%
%TD*%
G04 APERTURE END LIST*
D10*
%TO.P,D2,1,K*%
%TO.N,Net-(D2-K)*%
X83723462Y-39311879D03*
D11*
%TO.P,D2,3*%
%TO.N,+3V0*%
X78646557Y-39489168D03*
%TD*%
%TO.P,D1,3*%
%TO.N,+3V0*%
X81110833Y-36846557D03*
D12*
%TO.P,D1,1,K*%
%TO.N,Net-(D1-K)*%
X81288122Y-41923462D03*
%TD*%
D13*
%TO.P,SW1,1,1*%
%TO.N,unconnected-(SW1-Pad1)*%
X93201161Y-43224202D03*
%TO.P,SW1,2,2*%
%TO.N,+3V0*%
X92201161Y-41492150D03*
%TO.P,SW1,3,3*%
%TO.N,Net-(BT1-PadS+1)*%
X91201161Y-39760099D03*
D14*
%TO.P,SW1,4*%
%TO.N,N/C*%
X94201161Y-44956252D03*
%TO.P,SW1,5*%
X90201161Y-38028049D03*
%TD*%
D15*
%TO.P,R2,1*%
%TO.N,Net-(D1-K)*%
X70014170Y-57714397D03*
D16*
%TO.P,R2,2*%
%TO.N,GND*%
X74600000Y-63800000D03*
%TD*%
D15*
%TO.P,R1,1*%
%TO.N,Net-(D2-K)*%
X74107085Y-54957199D03*
D16*
%TO.P,R1,2*%
%TO.N,GND*%
X78692915Y-61042802D03*
%TD*%
D17*
%TO.P,J1,1,Pin_1*%
%TO.N,+3V0*%
X95231497Y-48650574D03*
D18*
%TO.P,J1,2,Pin_2*%
%TO.N,GND*%
X93176594Y-50143549D03*
%TD*%
D19*
%TO.P,BT1,-*%
%TO.N,GND*%
X61800000Y-45400000D03*
D20*
%TO.P,BT1,S+1*%
%TO.N,Net-(BT1-PadS+1)*%
X61800000Y-34600000D03*
%TO.P,BT1,S+2*%
X61800000Y-56200000D03*
%TD*%
D21*
%TO.N,+3V0*%
X90600000Y-44100000D02*
X90600000Y-42867717D01*
X90600000Y-42867717D02*
X89224433Y-41492150D01*
X95150574Y-48650574D02*
X90600000Y-44100000D01*
X95231497Y-48650574D02*
X95150574Y-48650574D01*
X78646557Y-39253443D02*
X81053443Y-36846557D01*
X81053443Y-36846557D02*
X81110833Y-36846557D01*
X78646557Y-39489168D02*
X78646557Y-39253443D01*
%TO.N,Net-(BT1-PadS+1)*%
X83679802Y-34600000D02*
X61800000Y-34600000D01*
X88839901Y-39760099D02*
X83679802Y-34600000D01*
%TO.N,GND*%
X63200000Y-44000000D02*
X61800000Y-45400000D01*
X87033045Y-44000000D02*
X63200000Y-44000000D01*
X93176594Y-50143549D02*
X87033045Y-44000000D01*
%TO.N,+3V0*%
X89224433Y-41492150D02*
X90607850Y-41492150D01*
X84578840Y-36846557D02*
X89224433Y-41492150D01*
X81110833Y-36846557D02*
X84578840Y-36846557D01*
X90600000Y-41500000D02*
X90607850Y-41492150D01*
X90607850Y-41492150D02*
X92201161Y-41492150D01*
%TO.N,Net-(BT1-PadS+1)*%
X88839901Y-39760099D02*
X91201161Y-39760099D01*
X61800000Y-34600000D02*
X62200000Y-34200000D01*
%TO.N,GND*%
X77135717Y-62600000D02*
X75800000Y-62600000D01*
X75800000Y-62600000D02*
X74600000Y-63800000D01*
X78692915Y-61042802D02*
X77135717Y-62600000D01*
X71200000Y-63800000D02*
X66200000Y-58800000D01*
X74600000Y-63800000D02*
X71200000Y-63800000D01*
X66200000Y-49800000D02*
X61800000Y-45400000D01*
X66200000Y-58800000D02*
X66200000Y-49800000D01*
%TD*%
%TA.AperFunction,Conductor*%
%TO.N,+3V0*%
G36*
X94158078Y-47299649D02*
G01*
X95289900Y-47548230D01*
X95297244Y-47553351D01*
X95299067Y-47560373D01*
X95232992Y-48638420D01*
X95229066Y-48646468D01*
X95220598Y-48649382D01*
X95219478Y-48649259D01*
X94051448Y-48463676D01*
X94043815Y-48458993D01*
X94042089Y-48455521D01*
X93800312Y-47658538D01*
X93801189Y-47649629D01*
X93803232Y-47646874D01*
X94147302Y-47302804D01*
X94155574Y-47299378D01*
X94158078Y-47299649D01*
G37*
%TD.AperFunction*%
%TD*%
%TA.AperFunction,Conductor*%
%TO.N,+3V0*%
G36*
X79607469Y-37951386D02*
G01*
X79949821Y-38293738D01*
X79953248Y-38302011D01*
X79952721Y-38305482D01*
X79481848Y-39821350D01*
X79476122Y-39828234D01*
X79467204Y-39829052D01*
X79466209Y-39828693D01*
X78650342Y-39491730D01*
X78644003Y-39485404D01*
X78643994Y-39485382D01*
X78306141Y-38667358D01*
X78306150Y-38658406D01*
X78311326Y-38652638D01*
X79593572Y-37949400D01*
X79602472Y-37948427D01*
X79607469Y-37951386D01*
G37*
%TD.AperFunction*%
%TD*%
%TA.AperFunction,Conductor*%
%TO.N,+3V0*%
G36*
X80289769Y-36506448D02*
G01*
X81107047Y-36843994D01*
X81113386Y-36850320D01*
X81113395Y-36850342D01*
X81450727Y-37667102D01*
X81450718Y-37676056D01*
X81444379Y-37682382D01*
X81444247Y-37682436D01*
X79998988Y-38258867D01*
X79990034Y-38258748D01*
X79986381Y-38256272D01*
X79644018Y-37913909D01*
X79640591Y-37905636D01*
X79641644Y-37900786D01*
X80274660Y-36512407D01*
X80281210Y-36506303D01*
X80289769Y-36506448D01*
G37*
%TD.AperFunction*%
%TD*%
%TA.AperFunction,Conductor*%
%TO.N,Net-(BT1-PadS+1)*%
G36*
X62902493Y-33603892D02*
G01*
X64293810Y-34346695D01*
X64299495Y-34353614D01*
X64300000Y-34357016D01*
X64300000Y-34842983D01*
X64296573Y-34851256D01*
X64293810Y-34853304D01*
X62902493Y-35596107D01*
X62893581Y-35596981D01*
X62889098Y-35594430D01*
X62245982Y-35007754D01*
X61808474Y-34608643D01*
X61804672Y-34600536D01*
X61807716Y-34592115D01*
X61808468Y-34591362D01*
X62889098Y-33605568D01*
X62897519Y-33602525D01*
X62902493Y-33603892D01*
G37*
%TD.AperFunction*%
%TD*%
%TA.AperFunction,Conductor*%
%TO.N,GND*%
G36*
X70482426Y-43159888D02*
G01*
X71097117Y-43467483D01*
X71655226Y-43746765D01*
X71661091Y-43753532D01*
X71661690Y-43757228D01*
X71661690Y-44245169D01*
X71658284Y-44253422D01*
X70784337Y-45131725D01*
X70776388Y-45135167D01*
X61903309Y-45396922D01*
X61894938Y-45393741D01*
X61891269Y-45385572D01*
X61894450Y-45377201D01*
X61900034Y-45373900D01*
X70474264Y-43159023D01*
X70482426Y-43159888D01*
G37*
%TD.AperFunction*%
%TD*%
%TA.AperFunction,Conductor*%
%TO.N,GND*%
G36*
X92158610Y-48767908D02*
G01*
X92164159Y-48770347D01*
X93491401Y-49353648D01*
X93497597Y-49360114D01*
X93497508Y-49368825D01*
X93179156Y-50139763D01*
X93172831Y-50146102D01*
X93172808Y-50146111D01*
X92401870Y-50464463D01*
X92392915Y-50464454D01*
X92386693Y-50458356D01*
X91800954Y-49125567D01*
X91800762Y-49116615D01*
X91803390Y-49112589D01*
X92145633Y-48770346D01*
X92153905Y-48766920D01*
X92158610Y-48767908D01*
G37*
%TD.AperFunction*%
%TD*%
%TA.AperFunction,Conductor*%
%TO.N,+3V0*%
G36*
X82903474Y-36593617D02*
G01*
X82909885Y-36599867D01*
X82910833Y-36604481D01*
X82910833Y-37088632D01*
X82907406Y-37096905D01*
X82903473Y-37099497D01*
X81465965Y-37673767D01*
X81457011Y-37673654D01*
X81450820Y-37667390D01*
X81214908Y-37099497D01*
X81111696Y-36851044D01*
X81111688Y-36842091D01*
X81111697Y-36842069D01*
X81213687Y-36596557D01*
X81450820Y-36025722D01*
X81457159Y-36019397D01*
X81465964Y-36019346D01*
X82903474Y-36593617D01*
G37*
%TD.AperFunction*%
%TD*%
%TA.AperFunction,Conductor*%
%TO.N,+3V0*%
G36*
X91947023Y-40886113D02*
G01*
X91952630Y-40892104D01*
X92200292Y-41487658D01*
X92200305Y-41496612D01*
X92200292Y-41496643D01*
X91952630Y-42092196D01*
X91946289Y-42098519D01*
X91938089Y-42098790D01*
X90888323Y-41744834D01*
X90881578Y-41738943D01*
X90880361Y-41733747D01*
X90880361Y-41250552D01*
X90883788Y-41242279D01*
X90888321Y-41239465D01*
X91938089Y-40885509D01*
X91947023Y-40886113D01*
G37*
%TD.AperFunction*%
%TD*%
%TA.AperFunction,Conductor*%
%TO.N,Net-(BT1-PadS+1)*%
G36*
X90947023Y-39154062D02*
G01*
X90952630Y-39160053D01*
X91200292Y-39755607D01*
X91200305Y-39764561D01*
X91200292Y-39764592D01*
X90952630Y-40360145D01*
X90946289Y-40366468D01*
X90938089Y-40366739D01*
X89888323Y-40012783D01*
X89881578Y-40006892D01*
X89880361Y-40001696D01*
X89880361Y-39518501D01*
X89883788Y-39510228D01*
X89888321Y-39507414D01*
X90938089Y-39153458D01*
X90947023Y-39154062D01*
G37*
%TD.AperFunction*%
%TD*%
%TA.AperFunction,Conductor*%
%TO.N,GND*%
G36*
X75560310Y-62497570D02*
G01*
X75902429Y-62839689D01*
X75905856Y-62847962D01*
X75904820Y-62852775D01*
X75343763Y-64095822D01*
X75337236Y-64101953D01*
X75328634Y-64101824D01*
X74603787Y-63802562D01*
X74597448Y-63796237D01*
X74597437Y-63796212D01*
X74298175Y-63071365D01*
X74298186Y-63062410D01*
X74304177Y-63056236D01*
X74765618Y-62847962D01*
X75547224Y-62495178D01*
X75556174Y-62494899D01*
X75560310Y-62497570D01*
G37*
%TD.AperFunction*%
%TD*%
%TA.AperFunction,Conductor*%
%TO.N,GND*%
G36*
X77964279Y-60740976D02*
G01*
X78689127Y-61040239D01*
X78695466Y-61046564D01*
X78695477Y-61046589D01*
X78994739Y-61771436D01*
X78994728Y-61780391D01*
X78988737Y-61786565D01*
X77745690Y-62347622D01*
X77736740Y-62347902D01*
X77732604Y-62345231D01*
X77390485Y-62003112D01*
X77387058Y-61994839D01*
X77388094Y-61990026D01*
X77813920Y-61046589D01*
X77949151Y-60746978D01*
X77955678Y-60740848D01*
X77964279Y-60740976D01*
G37*
%TD.AperFunction*%
%TD*%
%TA.AperFunction,Conductor*%
%TO.N,GND*%
G36*
X74292208Y-63065180D02*
G01*
X74298199Y-63071354D01*
X74599134Y-63795510D01*
X74599144Y-63804463D01*
X74599135Y-63804485D01*
X74599134Y-63804490D01*
X74298199Y-64528645D01*
X74291860Y-64534970D01*
X74283258Y-64535099D01*
X73007563Y-64052858D01*
X73001036Y-64046727D01*
X73000000Y-64041914D01*
X73000000Y-63558085D01*
X73003427Y-63549812D01*
X73007563Y-63547141D01*
X74283260Y-63064900D01*
X74292208Y-63065180D01*
G37*
%TD.AperFunction*%
%TD*%
%TA.AperFunction,Conductor*%
%TO.N,GND*%
G36*
X61850900Y-45475055D02*
G01*
X61855776Y-45479071D01*
X66661392Y-52377815D01*
X66663325Y-52386473D01*
X66451662Y-53625456D01*
X66446891Y-53633034D01*
X66440129Y-53635186D01*
X65952444Y-53635186D01*
X65947761Y-53634208D01*
X64801764Y-53133705D01*
X64795554Y-53127253D01*
X64795538Y-53127212D01*
X64508420Y-52386473D01*
X61835267Y-45489985D01*
X61835472Y-45481035D01*
X61841947Y-45474850D01*
X61850900Y-45475055D01*
G37*
%TD.AperFunction*%
%TD*%
M02*
